G75*
%MOIN*%
%OFA0B0*%
%FSLAX25Y25*%
%IPPOS*%
%LPD*%
%AMOC8*
5,1,8,0,0,1.08239X$1,22.5*
%
%ADD10C,0.00600*%
%ADD11C,0.01600*%
%ADD12C,0.00300*%
%ADD13C,0.00000*%
D10*
X0283212Y0213164D02*
X0287482Y0213164D01*
X0296103Y0214232D02*
X0298238Y0209961D01*
X0300373Y0214232D01*
X0302548Y0213164D02*
X0302548Y0212097D01*
X0306819Y0212097D01*
X0306819Y0213164D02*
X0306819Y0211029D01*
X0305751Y0209961D01*
X0303616Y0209961D01*
X0302548Y0213164D02*
X0303616Y0214232D01*
X0305751Y0214232D01*
X0306819Y0213164D01*
X0308994Y0213164D02*
X0310061Y0212097D01*
X0313264Y0212097D01*
X0311129Y0212097D02*
X0308994Y0209961D01*
X0308994Y0213164D02*
X0308994Y0215299D01*
X0310061Y0216367D01*
X0313264Y0216367D01*
X0313264Y0209961D01*
X0321885Y0209961D02*
X0326155Y0209961D01*
X0324020Y0209961D02*
X0324020Y0216367D01*
X0326155Y0214232D01*
X0328330Y0215299D02*
X0332601Y0211029D01*
X0331533Y0209961D01*
X0329398Y0209961D01*
X0328330Y0211029D01*
X0328330Y0215299D01*
X0329398Y0216367D01*
X0331533Y0216367D01*
X0332601Y0215299D01*
X0332601Y0211029D01*
X0334776Y0211029D02*
X0335843Y0209961D01*
X0337979Y0209961D01*
X0339046Y0211029D01*
X0334776Y0215299D01*
X0334776Y0211029D01*
X0339046Y0211029D02*
X0339046Y0215299D01*
X0337979Y0216367D01*
X0335843Y0216367D01*
X0334776Y0215299D01*
X0340147Y0218343D02*
X0341215Y0217275D01*
X0342282Y0217275D01*
X0340147Y0218343D02*
X0340147Y0223681D01*
X0340147Y0219410D02*
X0343350Y0219410D01*
X0344417Y0220478D01*
X0344417Y0223681D01*
X0346593Y0222613D02*
X0346593Y0219410D01*
X0349795Y0219410D01*
X0350863Y0220478D01*
X0349795Y0221545D01*
X0346593Y0221545D01*
X0346593Y0222613D02*
X0347660Y0223681D01*
X0349795Y0223681D01*
X0353031Y0223681D02*
X0354099Y0223681D01*
X0356234Y0221545D01*
X0356234Y0219410D02*
X0356234Y0223681D01*
X0358403Y0223681D02*
X0359470Y0223681D01*
X0361605Y0221545D01*
X0361605Y0219410D02*
X0361605Y0223681D01*
X0363781Y0223681D02*
X0363781Y0219410D01*
X0366983Y0219410D01*
X0368051Y0220478D01*
X0368051Y0223681D01*
X0370226Y0225816D02*
X0370226Y0219410D01*
X0374496Y0219410D02*
X0374496Y0225816D01*
X0372361Y0223681D01*
X0370226Y0225816D01*
X0376652Y0220478D02*
X0376652Y0219410D01*
X0377719Y0219410D01*
X0377719Y0220478D01*
X0376652Y0220478D01*
X0379894Y0219410D02*
X0379894Y0225816D01*
X0384165Y0225816D02*
X0379894Y0219410D01*
X0379894Y0216367D02*
X0379894Y0209961D01*
X0377719Y0209961D02*
X0377719Y0216367D01*
X0374516Y0216367D01*
X0373449Y0215299D01*
X0373449Y0213164D01*
X0374516Y0212097D01*
X0377719Y0212097D01*
X0379894Y0216367D02*
X0382029Y0214232D01*
X0384165Y0216367D01*
X0384165Y0209961D01*
X0384165Y0219410D02*
X0384165Y0225816D01*
X0364828Y0215299D02*
X0364828Y0214232D01*
X0363761Y0213164D01*
X0361625Y0213164D01*
X0360558Y0212097D01*
X0360558Y0211029D01*
X0361625Y0209961D01*
X0363761Y0209961D01*
X0364828Y0211029D01*
X0367003Y0208894D02*
X0371274Y0208894D01*
X0364828Y0215299D02*
X0363761Y0216367D01*
X0361625Y0216367D01*
X0360558Y0215299D01*
X0358383Y0216367D02*
X0358383Y0209961D01*
X0354112Y0209961D01*
X0351937Y0209961D02*
X0351937Y0216367D01*
X0347667Y0209961D01*
X0347667Y0216367D01*
X0354112Y0216367D02*
X0358383Y0216367D01*
X0358383Y0213164D02*
X0356247Y0213164D01*
X0345492Y0208894D02*
X0341221Y0208894D01*
X0292033Y0266117D02*
X0289833Y0266117D01*
X0292033Y0266117D02*
X0292033Y0269317D01*
X0283033Y0266117D02*
X0280833Y0266117D01*
X0280833Y0269317D01*
X0277078Y0269804D02*
X0275777Y0269804D01*
X0275343Y0270238D01*
X0275343Y0271972D01*
X0275777Y0272406D01*
X0277078Y0272406D01*
X0277078Y0269804D01*
X0274131Y0269804D02*
X0272397Y0269804D01*
X0273264Y0269804D02*
X0273264Y0272406D01*
X0274131Y0271539D01*
X0272354Y0278465D02*
X0270619Y0281068D01*
X0269407Y0281068D02*
X0267672Y0281068D01*
X0267672Y0280634D01*
X0269407Y0278899D01*
X0269407Y0278465D01*
X0270619Y0278465D02*
X0272354Y0281068D01*
X0284208Y0278465D02*
X0285942Y0278465D01*
X0285075Y0278465D02*
X0285075Y0281068D01*
X0285942Y0280200D01*
X0287154Y0278465D02*
X0288889Y0278465D01*
X0288889Y0281068D01*
X0290802Y0283502D02*
X0286002Y0283502D01*
X0286002Y0293302D02*
X0290802Y0293302D01*
X0290030Y0297363D02*
X0289163Y0297363D01*
X0288729Y0297797D01*
X0287517Y0297797D02*
X0287517Y0297363D01*
X0287517Y0297797D02*
X0285782Y0299532D01*
X0285782Y0299965D01*
X0287517Y0299965D01*
X0288729Y0299532D02*
X0289163Y0299965D01*
X0290030Y0299965D01*
X0290464Y0299532D01*
X0290464Y0297797D01*
X0290030Y0297363D01*
X0293303Y0306812D02*
X0292869Y0307246D01*
X0292869Y0307679D01*
X0293303Y0308113D01*
X0294604Y0308113D01*
X0294604Y0307246D01*
X0294170Y0306812D01*
X0293303Y0306812D01*
X0294604Y0308113D02*
X0293736Y0308980D01*
X0292869Y0309414D01*
X0295816Y0308980D02*
X0295816Y0308113D01*
X0296249Y0307679D01*
X0297550Y0307679D01*
X0296683Y0307679D02*
X0295816Y0306812D01*
X0297550Y0306812D02*
X0297550Y0309414D01*
X0296249Y0309414D01*
X0295816Y0308980D01*
X0307830Y0306618D02*
X0308263Y0307052D01*
X0309131Y0307052D01*
X0309565Y0306618D01*
X0310776Y0307052D02*
X0310776Y0304883D01*
X0311210Y0304450D01*
X0312077Y0304450D01*
X0312511Y0304883D01*
X0312511Y0307052D01*
X0309565Y0304450D02*
X0307830Y0306184D01*
X0307830Y0306618D01*
X0307830Y0304450D02*
X0309565Y0304450D01*
X0316466Y0302176D02*
X0327266Y0302176D01*
X0327948Y0306812D02*
X0328816Y0306812D01*
X0329250Y0307246D01*
X0329250Y0308113D02*
X0328382Y0308547D01*
X0327948Y0308547D01*
X0327515Y0308113D01*
X0327515Y0307246D01*
X0327948Y0306812D01*
X0329250Y0308113D02*
X0329250Y0309414D01*
X0327515Y0309414D01*
X0330461Y0308980D02*
X0330461Y0308113D01*
X0330895Y0307679D01*
X0332196Y0307679D01*
X0332196Y0306812D02*
X0332196Y0309414D01*
X0330895Y0309414D01*
X0330461Y0308980D01*
X0331329Y0307679D02*
X0330461Y0306812D01*
X0338051Y0304581D02*
X0338051Y0299781D01*
X0345051Y0299781D02*
X0345051Y0304581D01*
X0343573Y0292091D02*
X0344007Y0291657D01*
X0344007Y0289923D01*
X0343573Y0289489D01*
X0342706Y0289489D01*
X0342272Y0289923D01*
X0341061Y0289923D02*
X0340627Y0289489D01*
X0339759Y0289489D01*
X0339326Y0289923D01*
X0339326Y0291657D01*
X0339759Y0292091D01*
X0340627Y0292091D01*
X0341061Y0291657D01*
X0341061Y0291224D01*
X0340627Y0290790D01*
X0339326Y0290790D01*
X0342272Y0291657D02*
X0342706Y0292091D01*
X0343573Y0292091D01*
X0327266Y0290376D02*
X0323066Y0290376D01*
X0320666Y0290376D01*
X0316466Y0290376D01*
X0319287Y0283430D02*
X0318853Y0282996D01*
X0318853Y0282562D01*
X0319287Y0282129D01*
X0320154Y0282129D01*
X0320588Y0282562D01*
X0320588Y0282996D01*
X0320154Y0283430D01*
X0319287Y0283430D01*
X0319287Y0282129D02*
X0318853Y0281695D01*
X0318853Y0281261D01*
X0319287Y0280828D01*
X0320154Y0280828D01*
X0320588Y0281261D01*
X0320588Y0281695D01*
X0320154Y0282129D01*
X0321800Y0283430D02*
X0323535Y0280828D01*
X0321800Y0280828D02*
X0323535Y0283430D01*
X0279440Y0304450D02*
X0279440Y0307052D01*
X0278139Y0307052D01*
X0277705Y0306618D01*
X0277705Y0305751D01*
X0278139Y0305317D01*
X0279440Y0305317D01*
X0278573Y0305317D02*
X0277705Y0304450D01*
X0276494Y0305751D02*
X0274759Y0305751D01*
X0275193Y0307052D02*
X0276494Y0305751D01*
X0275193Y0304450D02*
X0275193Y0307052D01*
X0260543Y0305043D02*
X0260543Y0303309D01*
X0260109Y0302875D01*
X0259241Y0302875D01*
X0258808Y0303309D01*
X0257596Y0303309D02*
X0257596Y0303742D01*
X0257162Y0304176D01*
X0256295Y0304176D01*
X0255861Y0303742D01*
X0255861Y0303309D01*
X0256295Y0302875D01*
X0257162Y0302875D01*
X0257596Y0303309D01*
X0257162Y0304176D02*
X0257596Y0304610D01*
X0257596Y0305043D01*
X0257162Y0305477D01*
X0256295Y0305477D01*
X0255861Y0305043D01*
X0255861Y0304610D01*
X0256295Y0304176D01*
X0258808Y0305043D02*
X0259241Y0305477D01*
X0260109Y0305477D01*
X0260543Y0305043D01*
D11*
X0263205Y0214386D02*
X0263205Y0208087D01*
X0269504Y0208087D01*
X0269504Y0215173D01*
X0275803Y0215173D01*
X0275803Y0208087D01*
X0282102Y0208087D01*
X0282102Y0215173D01*
X0288402Y0215173D01*
X0288402Y0221472D01*
X0263205Y0221472D01*
X0263205Y0215173D01*
X0269504Y0215173D01*
X0275803Y0215173D02*
X0282102Y0215173D01*
X0288402Y0215173D02*
X0288402Y0208087D01*
X0282102Y0208087D01*
X0275803Y0208087D02*
X0269504Y0208087D01*
D12*
X0272143Y0210295D02*
X0272627Y0209811D01*
X0273595Y0209811D01*
X0274078Y0210295D01*
X0273111Y0211263D02*
X0272627Y0211263D01*
X0272143Y0210779D01*
X0272143Y0210295D01*
X0272627Y0211263D02*
X0272143Y0211746D01*
X0272143Y0212230D01*
X0272627Y0212714D01*
X0273595Y0212714D01*
X0274078Y0212230D01*
X0278443Y0212230D02*
X0278926Y0212714D01*
X0279894Y0212714D01*
X0280378Y0212230D01*
X0278443Y0212230D02*
X0278443Y0211746D01*
X0280378Y0209811D01*
X0278443Y0209811D01*
X0284742Y0209811D02*
X0286677Y0209811D01*
X0285709Y0209811D02*
X0285709Y0212714D01*
X0286677Y0211746D01*
X0281165Y0216898D02*
X0281165Y0219801D01*
X0280197Y0218833D01*
X0279230Y0219801D01*
X0279230Y0216898D01*
X0278218Y0217382D02*
X0277735Y0216898D01*
X0276767Y0216898D01*
X0276283Y0217382D01*
X0276283Y0219317D01*
X0276767Y0219801D01*
X0277735Y0219801D01*
X0278218Y0219317D01*
X0278218Y0217382D01*
X0275272Y0216898D02*
X0275272Y0219801D01*
X0273821Y0219801D01*
X0273337Y0219317D01*
X0273337Y0217382D01*
X0273821Y0216898D01*
X0275272Y0216898D01*
X0267779Y0211263D02*
X0265844Y0211263D01*
X0266328Y0212714D02*
X0267779Y0211263D01*
X0266328Y0209811D02*
X0266328Y0212714D01*
X0310116Y0289006D02*
X0313252Y0292142D01*
X0311684Y0292142D02*
X0311684Y0289006D01*
X0313252Y0289006D02*
X0310116Y0292142D01*
X0310116Y0290574D02*
X0313252Y0290574D01*
D13*
X0320666Y0290376D02*
X0320668Y0290445D01*
X0320674Y0290513D01*
X0320684Y0290581D01*
X0320697Y0290648D01*
X0320715Y0290714D01*
X0320736Y0290779D01*
X0320761Y0290843D01*
X0320789Y0290905D01*
X0320821Y0290966D01*
X0320856Y0291025D01*
X0320895Y0291081D01*
X0320937Y0291136D01*
X0320982Y0291187D01*
X0321030Y0291237D01*
X0321080Y0291283D01*
X0321133Y0291326D01*
X0321189Y0291367D01*
X0321246Y0291404D01*
X0321306Y0291437D01*
X0321368Y0291468D01*
X0321431Y0291494D01*
X0321495Y0291517D01*
X0321561Y0291537D01*
X0321628Y0291552D01*
X0321695Y0291564D01*
X0321763Y0291572D01*
X0321832Y0291576D01*
X0321900Y0291576D01*
X0321969Y0291572D01*
X0322037Y0291564D01*
X0322104Y0291552D01*
X0322171Y0291537D01*
X0322237Y0291517D01*
X0322301Y0291494D01*
X0322364Y0291468D01*
X0322426Y0291437D01*
X0322486Y0291404D01*
X0322543Y0291367D01*
X0322599Y0291326D01*
X0322652Y0291283D01*
X0322702Y0291237D01*
X0322750Y0291187D01*
X0322795Y0291136D01*
X0322837Y0291081D01*
X0322876Y0291025D01*
X0322911Y0290966D01*
X0322943Y0290905D01*
X0322971Y0290843D01*
X0322996Y0290779D01*
X0323017Y0290714D01*
X0323035Y0290648D01*
X0323048Y0290581D01*
X0323058Y0290513D01*
X0323064Y0290445D01*
X0323066Y0290376D01*
M02*
