G75*
%MOIN*%
%OFA0B0*%
%FSLAX25Y25*%
%IPPOS*%
%LPD*%
%AMOC8*
5,1,8,0,0,1.08239X$1,22.5*
%
%ADD10C,0.04750*%
%ADD11R,0.02400X0.01800*%
%ADD12R,0.04900X0.08500*%
%ADD13R,0.05700X0.04400*%
%ADD14R,0.02400X0.02600*%
%ADD15R,0.02600X0.02400*%
%ADD16R,0.05400X0.01800*%
%ADD17R,0.07100X0.03600*%
%ADD18R,0.03937X0.05512*%
%ADD19R,0.07874X0.07874*%
%ADD20C,0.01000*%
%ADD21C,0.04000*%
%ADD22C,0.00787*%
D10*
X0303165Y0253953D03*
X0319898Y0253953D03*
X0319898Y0270685D03*
X0303165Y0270685D03*
D11*
X0282496Y0296344D03*
X0282496Y0300144D03*
D12*
X0282402Y0288402D03*
X0294402Y0288402D03*
D13*
X0268717Y0300550D03*
X0268717Y0307750D03*
D14*
X0278559Y0300544D03*
X0278559Y0295944D03*
D15*
X0284133Y0308087D03*
X0288733Y0308087D03*
X0319566Y0308087D03*
X0324166Y0308087D03*
D16*
X0330566Y0300076D03*
X0330566Y0297576D03*
X0330566Y0294976D03*
X0330566Y0292476D03*
X0313166Y0292476D03*
X0313166Y0294976D03*
X0313166Y0297576D03*
X0313166Y0300076D03*
D17*
X0341551Y0296681D03*
X0341551Y0307681D03*
D18*
X0290173Y0273047D03*
X0282693Y0273047D03*
X0286433Y0264386D03*
D19*
X0312024Y0282496D03*
X0270685Y0288402D03*
D20*
X0195882Y0227378D02*
X0195882Y0206906D01*
X0384314Y0207691D01*
X0384314Y0310055D01*
X0347457Y0310055D01*
X0347457Y0301774D01*
X0348272Y0300958D01*
X0348272Y0293561D01*
X0347457Y0292746D01*
X0347457Y0286433D01*
X0324412Y0286433D01*
X0319729Y0281750D01*
X0319729Y0277813D01*
X0310871Y0268955D01*
X0310871Y0263050D01*
X0306934Y0259113D01*
X0306934Y0259113D01*
X0305879Y0258058D01*
X0305879Y0258058D01*
X0304994Y0257173D01*
X0305247Y0257068D01*
X0306281Y0256034D01*
X0306840Y0254684D01*
X0306840Y0253222D01*
X0306281Y0251871D01*
X0305247Y0250837D01*
X0303896Y0250278D01*
X0302434Y0250278D01*
X0301084Y0250837D01*
X0300050Y0251871D01*
X0299491Y0253222D01*
X0299491Y0254684D01*
X0300050Y0256034D01*
X0301084Y0257068D01*
X0301365Y0257185D01*
X0301365Y0258058D01*
X0296276Y0258058D01*
X0296276Y0256906D01*
X0276591Y0256906D01*
X0276591Y0270108D01*
X0267564Y0279135D01*
X0267564Y0277448D01*
X0267633Y0277420D01*
X0268561Y0276491D01*
X0269064Y0275278D01*
X0269064Y0273966D01*
X0268561Y0272753D01*
X0267633Y0271824D01*
X0266420Y0271322D01*
X0265107Y0271322D01*
X0263894Y0271824D01*
X0262966Y0272753D01*
X0262464Y0273966D01*
X0262464Y0275278D01*
X0262966Y0276491D01*
X0263894Y0277420D01*
X0263964Y0277448D01*
X0263964Y0279782D01*
X0261011Y0282735D01*
X0261011Y0288054D01*
X0260186Y0288054D01*
X0258973Y0288557D01*
X0258045Y0289485D01*
X0257543Y0290698D01*
X0257543Y0292011D01*
X0258045Y0293224D01*
X0258973Y0294152D01*
X0260186Y0294654D01*
X0261499Y0294654D01*
X0262712Y0294152D01*
X0262811Y0294053D01*
X0262811Y0296683D01*
X0261995Y0297498D01*
X0261995Y0307848D01*
X0262811Y0308664D01*
X0262811Y0310055D01*
X0153906Y0310055D01*
X0153906Y0227378D01*
X0195882Y0227378D01*
X0195882Y0226664D02*
X0296176Y0226664D01*
X0295928Y0226066D02*
X0295928Y0224753D01*
X0296431Y0223540D01*
X0297359Y0222612D01*
X0298572Y0222109D01*
X0299885Y0222109D01*
X0301098Y0222612D01*
X0302026Y0223540D01*
X0302528Y0224753D01*
X0302528Y0226066D01*
X0302500Y0226135D01*
X0346731Y0270367D01*
X0346800Y0270338D01*
X0348113Y0270338D01*
X0349326Y0270840D01*
X0350254Y0271768D01*
X0350757Y0272981D01*
X0350757Y0274294D01*
X0350254Y0275507D01*
X0349326Y0276435D01*
X0348113Y0276938D01*
X0346800Y0276938D01*
X0345587Y0276435D01*
X0344659Y0275507D01*
X0344157Y0274294D01*
X0344157Y0272981D01*
X0344185Y0272912D01*
X0299954Y0228681D01*
X0299885Y0228709D01*
X0298572Y0228709D01*
X0297359Y0228207D01*
X0296431Y0227279D01*
X0295928Y0226066D01*
X0295928Y0225665D02*
X0195882Y0225665D01*
X0195882Y0224667D02*
X0295964Y0224667D01*
X0296378Y0223668D02*
X0195882Y0223668D01*
X0195882Y0222670D02*
X0297301Y0222670D01*
X0299228Y0225409D02*
X0347457Y0273638D01*
X0350757Y0273594D02*
X0384314Y0273594D01*
X0384314Y0274592D02*
X0350633Y0274592D01*
X0350171Y0275591D02*
X0384314Y0275591D01*
X0384314Y0276589D02*
X0348955Y0276589D01*
X0345959Y0276589D02*
X0318505Y0276589D01*
X0319503Y0277588D02*
X0384314Y0277588D01*
X0384314Y0278586D02*
X0319729Y0278586D01*
X0319729Y0279585D02*
X0384314Y0279585D01*
X0384314Y0280583D02*
X0319729Y0280583D01*
X0319729Y0281582D02*
X0384314Y0281582D01*
X0384314Y0282580D02*
X0320559Y0282580D01*
X0321557Y0283579D02*
X0384314Y0283579D01*
X0384314Y0284577D02*
X0322556Y0284577D01*
X0323554Y0285576D02*
X0384314Y0285576D01*
X0384314Y0286574D02*
X0347457Y0286574D01*
X0347457Y0287573D02*
X0384314Y0287573D01*
X0384314Y0288571D02*
X0347457Y0288571D01*
X0347457Y0289570D02*
X0384314Y0289570D01*
X0384314Y0290568D02*
X0347457Y0290568D01*
X0347457Y0291567D02*
X0384314Y0291567D01*
X0384314Y0292565D02*
X0347457Y0292565D01*
X0348272Y0293564D02*
X0384314Y0293564D01*
X0384314Y0294562D02*
X0348272Y0294562D01*
X0348272Y0295561D02*
X0384314Y0295561D01*
X0384314Y0296559D02*
X0348272Y0296559D01*
X0348272Y0297558D02*
X0384314Y0297558D01*
X0384314Y0298556D02*
X0348272Y0298556D01*
X0348272Y0299555D02*
X0384314Y0299555D01*
X0384314Y0300553D02*
X0348272Y0300553D01*
X0347679Y0301552D02*
X0384314Y0301552D01*
X0384314Y0302550D02*
X0347457Y0302550D01*
X0347457Y0303549D02*
X0384314Y0303549D01*
X0384314Y0304547D02*
X0347457Y0304547D01*
X0347457Y0305546D02*
X0384314Y0305546D01*
X0384314Y0306544D02*
X0347457Y0306544D01*
X0347457Y0307543D02*
X0384314Y0307543D01*
X0384314Y0308541D02*
X0347457Y0308541D01*
X0347457Y0309540D02*
X0384314Y0309540D01*
X0346472Y0300213D02*
X0346472Y0294307D01*
X0340567Y0288402D01*
X0323835Y0288402D01*
X0317929Y0282496D01*
X0317929Y0288402D01*
X0313992Y0292339D01*
X0313166Y0292476D01*
X0313166Y0294976D02*
X0313008Y0295291D01*
X0310055Y0295291D01*
X0305134Y0290370D01*
X0305134Y0289386D01*
X0312024Y0282496D01*
X0317929Y0282496D02*
X0317929Y0278559D01*
X0309071Y0269701D01*
X0309071Y0263795D01*
X0305134Y0259858D01*
X0283480Y0259858D01*
X0278559Y0264780D01*
X0278559Y0270685D01*
X0264780Y0284465D01*
X0264780Y0297260D01*
X0263795Y0298244D01*
X0263795Y0307102D01*
X0268717Y0307102D01*
X0268717Y0307750D01*
X0268717Y0308087D01*
X0284133Y0308087D01*
X0288733Y0308087D02*
X0313008Y0308087D01*
X0313008Y0300213D01*
X0313166Y0297576D02*
X0313008Y0297260D01*
X0295291Y0297260D01*
X0295291Y0300213D01*
X0282496Y0300213D01*
X0282496Y0300144D01*
X0282496Y0300213D02*
X0278559Y0300213D01*
X0278559Y0300544D01*
X0278559Y0301197D01*
X0268717Y0301197D01*
X0268717Y0300550D01*
X0261995Y0300553D02*
X0153906Y0300553D01*
X0153906Y0299555D02*
X0261995Y0299555D01*
X0261995Y0298556D02*
X0153906Y0298556D01*
X0153906Y0297558D02*
X0261995Y0297558D01*
X0262811Y0296559D02*
X0153906Y0296559D01*
X0153906Y0295561D02*
X0262811Y0295561D01*
X0262811Y0294562D02*
X0261721Y0294562D01*
X0259964Y0294562D02*
X0153906Y0294562D01*
X0153906Y0293564D02*
X0258385Y0293564D01*
X0257772Y0292565D02*
X0153906Y0292565D01*
X0153906Y0291567D02*
X0257543Y0291567D01*
X0257596Y0290568D02*
X0153906Y0290568D01*
X0153906Y0289570D02*
X0258010Y0289570D01*
X0258959Y0288571D02*
X0153906Y0288571D01*
X0153906Y0287573D02*
X0167203Y0287573D01*
X0167666Y0287765D02*
X0166454Y0287262D01*
X0165525Y0286334D01*
X0165023Y0285121D01*
X0165023Y0283808D01*
X0165525Y0282595D01*
X0166454Y0281667D01*
X0167666Y0281165D01*
X0168979Y0281165D01*
X0170192Y0281667D01*
X0171120Y0282595D01*
X0171149Y0282665D01*
X0185224Y0282665D01*
X0185224Y0260716D01*
X0185154Y0260687D01*
X0184563Y0260096D01*
X0183972Y0260687D01*
X0183902Y0260716D01*
X0183902Y0273399D01*
X0182848Y0274454D01*
X0179468Y0277833D01*
X0179497Y0277903D01*
X0179497Y0279215D01*
X0178994Y0280428D01*
X0178066Y0281357D01*
X0176853Y0281859D01*
X0175540Y0281859D01*
X0174328Y0281357D01*
X0173399Y0280428D01*
X0172897Y0279215D01*
X0172897Y0277903D01*
X0173399Y0276690D01*
X0174328Y0275761D01*
X0175540Y0275259D01*
X0176853Y0275259D01*
X0176923Y0275288D01*
X0180302Y0271908D01*
X0180302Y0260716D01*
X0180233Y0260687D01*
X0179965Y0260420D01*
X0179965Y0265525D01*
X0178911Y0266580D01*
X0170610Y0274881D01*
X0170639Y0274950D01*
X0170639Y0276263D01*
X0170136Y0277476D01*
X0169208Y0278404D01*
X0167995Y0278906D01*
X0166682Y0278906D01*
X0165469Y0278404D01*
X0164541Y0277476D01*
X0164039Y0276263D01*
X0164039Y0274950D01*
X0164541Y0273737D01*
X0165469Y0272809D01*
X0166682Y0272306D01*
X0167995Y0272306D01*
X0168064Y0272335D01*
X0176365Y0264034D01*
X0176365Y0260267D01*
X0170610Y0266022D01*
X0170639Y0266092D01*
X0170639Y0267404D01*
X0170136Y0268617D01*
X0169208Y0269546D01*
X0167995Y0270048D01*
X0166682Y0270048D01*
X0165469Y0269546D01*
X0164541Y0268617D01*
X0164039Y0267404D01*
X0164039Y0266092D01*
X0164541Y0264879D01*
X0165469Y0263950D01*
X0166682Y0263448D01*
X0167995Y0263448D01*
X0168064Y0263477D01*
X0174397Y0257144D01*
X0174397Y0250254D01*
X0178831Y0245820D01*
X0178802Y0245751D01*
X0178802Y0244438D01*
X0179305Y0243225D01*
X0180233Y0242297D01*
X0181446Y0241794D01*
X0182759Y0241794D01*
X0183972Y0242297D01*
X0184900Y0243225D01*
X0185402Y0244438D01*
X0185402Y0245751D01*
X0184900Y0246964D01*
X0184309Y0247555D01*
X0184900Y0248146D01*
X0185402Y0249359D01*
X0185402Y0250672D01*
X0184900Y0251885D01*
X0183972Y0252813D01*
X0182759Y0253316D01*
X0181446Y0253316D01*
X0181377Y0253287D01*
X0179965Y0254698D01*
X0179965Y0255360D01*
X0180233Y0255092D01*
X0181446Y0254590D01*
X0182759Y0254590D01*
X0183972Y0255092D01*
X0184563Y0255684D01*
X0185154Y0255092D01*
X0186367Y0254590D01*
X0187680Y0254590D01*
X0188893Y0255092D01*
X0189821Y0256020D01*
X0190324Y0257233D01*
X0190324Y0258546D01*
X0189821Y0259759D01*
X0188893Y0260687D01*
X0188824Y0260716D01*
X0188824Y0285210D01*
X0187769Y0286265D01*
X0171149Y0286265D01*
X0171120Y0286334D01*
X0170192Y0287262D01*
X0168979Y0287765D01*
X0167666Y0287765D01*
X0169442Y0287573D02*
X0261011Y0287573D01*
X0261011Y0286574D02*
X0170880Y0286574D01*
X0168323Y0284465D02*
X0187024Y0284465D01*
X0187024Y0257890D01*
X0190069Y0256619D02*
X0202892Y0256619D01*
X0201894Y0255620D02*
X0189421Y0255620D01*
X0187758Y0254622D02*
X0200895Y0254622D01*
X0199897Y0253623D02*
X0181040Y0253623D01*
X0181368Y0254622D02*
X0180042Y0254622D01*
X0178165Y0253953D02*
X0182102Y0250016D01*
X0184386Y0247632D02*
X0191969Y0247632D01*
X0192100Y0247948D02*
X0191598Y0246735D01*
X0191598Y0245422D01*
X0192100Y0244209D01*
X0193028Y0243281D01*
X0194241Y0242779D01*
X0195554Y0242779D01*
X0196767Y0243281D01*
X0197695Y0244209D01*
X0198198Y0245422D01*
X0198198Y0246735D01*
X0198169Y0246804D01*
X0210904Y0259540D01*
X0210973Y0259511D01*
X0212286Y0259511D01*
X0213499Y0260013D01*
X0214428Y0260942D01*
X0214930Y0262155D01*
X0214930Y0263467D01*
X0214428Y0264680D01*
X0213499Y0265609D01*
X0212286Y0266111D01*
X0210973Y0266111D01*
X0209761Y0265609D01*
X0208832Y0264680D01*
X0208330Y0263467D01*
X0208330Y0262155D01*
X0208359Y0262085D01*
X0195623Y0249350D01*
X0195554Y0249379D01*
X0194241Y0249379D01*
X0193028Y0248876D01*
X0192100Y0247948D01*
X0192783Y0248631D02*
X0185101Y0248631D01*
X0185402Y0249629D02*
X0195903Y0249629D01*
X0196901Y0250628D02*
X0185402Y0250628D01*
X0185007Y0251626D02*
X0197900Y0251626D01*
X0198898Y0252625D02*
X0184160Y0252625D01*
X0182836Y0254622D02*
X0186290Y0254622D01*
X0184626Y0255620D02*
X0184500Y0255620D01*
X0182102Y0257890D02*
X0182102Y0272654D01*
X0176197Y0278559D01*
X0179497Y0278586D02*
X0185224Y0278586D01*
X0185224Y0277588D02*
X0179714Y0277588D01*
X0180712Y0276589D02*
X0185224Y0276589D01*
X0185224Y0275591D02*
X0181711Y0275591D01*
X0182709Y0274592D02*
X0185224Y0274592D01*
X0185224Y0273594D02*
X0183708Y0273594D01*
X0183902Y0272595D02*
X0185224Y0272595D01*
X0185224Y0271597D02*
X0183902Y0271597D01*
X0183902Y0270598D02*
X0185224Y0270598D01*
X0185224Y0269600D02*
X0183902Y0269600D01*
X0183902Y0268601D02*
X0185224Y0268601D01*
X0185224Y0267603D02*
X0183902Y0267603D01*
X0183902Y0266604D02*
X0185224Y0266604D01*
X0185224Y0265605D02*
X0183902Y0265605D01*
X0183902Y0264607D02*
X0185224Y0264607D01*
X0185224Y0263608D02*
X0183902Y0263608D01*
X0183902Y0262610D02*
X0185224Y0262610D01*
X0185224Y0261611D02*
X0183902Y0261611D01*
X0184046Y0260613D02*
X0185080Y0260613D01*
X0188824Y0261611D02*
X0207885Y0261611D01*
X0208330Y0262610D02*
X0188824Y0262610D01*
X0188824Y0263608D02*
X0208388Y0263608D01*
X0208802Y0264607D02*
X0188824Y0264607D01*
X0188824Y0265605D02*
X0209758Y0265605D01*
X0211630Y0262811D02*
X0194898Y0246079D01*
X0197124Y0243638D02*
X0314912Y0243638D01*
X0315910Y0244637D02*
X0197872Y0244637D01*
X0198198Y0245635D02*
X0316909Y0245635D01*
X0317907Y0246634D02*
X0198198Y0246634D01*
X0198997Y0247632D02*
X0318906Y0247632D01*
X0319904Y0248631D02*
X0199995Y0248631D01*
X0200994Y0249629D02*
X0320903Y0249629D01*
X0320629Y0250278D02*
X0321979Y0250837D01*
X0323013Y0251871D01*
X0323572Y0253222D01*
X0323572Y0254684D01*
X0323013Y0256034D01*
X0321979Y0257068D01*
X0320629Y0257628D01*
X0319167Y0257628D01*
X0317816Y0257068D01*
X0316782Y0256034D01*
X0316223Y0254684D01*
X0316223Y0253222D01*
X0316782Y0251871D01*
X0317816Y0250837D01*
X0319167Y0250278D01*
X0320629Y0250278D01*
X0321473Y0250628D02*
X0321901Y0250628D01*
X0322768Y0251626D02*
X0322900Y0251626D01*
X0323325Y0252625D02*
X0323898Y0252625D01*
X0323572Y0253623D02*
X0324897Y0253623D01*
X0325895Y0254622D02*
X0323572Y0254622D01*
X0323184Y0255620D02*
X0326894Y0255620D01*
X0327892Y0256619D02*
X0322428Y0256619D01*
X0320653Y0257617D02*
X0328891Y0257617D01*
X0329889Y0258616D02*
X0306437Y0258616D01*
X0305439Y0257617D02*
X0319142Y0257617D01*
X0317367Y0256619D02*
X0305696Y0256619D01*
X0306452Y0255620D02*
X0316611Y0255620D01*
X0316223Y0254622D02*
X0306840Y0254622D01*
X0306840Y0253623D02*
X0316223Y0253623D01*
X0316470Y0252625D02*
X0306593Y0252625D01*
X0306036Y0251626D02*
X0317027Y0251626D01*
X0318322Y0250628D02*
X0304741Y0250628D01*
X0301590Y0250628D02*
X0201992Y0250628D01*
X0202991Y0251626D02*
X0300295Y0251626D01*
X0299738Y0252625D02*
X0203989Y0252625D01*
X0204988Y0253623D02*
X0299491Y0253623D01*
X0299491Y0254622D02*
X0205986Y0254622D01*
X0206985Y0255620D02*
X0229562Y0255620D01*
X0229674Y0255574D02*
X0230987Y0255574D01*
X0232200Y0256076D01*
X0233128Y0257005D01*
X0233631Y0258218D01*
X0233631Y0259530D01*
X0233602Y0259600D01*
X0238463Y0264461D01*
X0238533Y0264432D01*
X0239845Y0264432D01*
X0241058Y0264935D01*
X0241987Y0265863D01*
X0242489Y0267076D01*
X0242489Y0268389D01*
X0241987Y0269602D01*
X0241058Y0270530D01*
X0239845Y0271032D01*
X0238533Y0271032D01*
X0237320Y0270530D01*
X0236391Y0269602D01*
X0235889Y0268389D01*
X0235889Y0267076D01*
X0235918Y0267007D01*
X0231056Y0262145D01*
X0230987Y0262174D01*
X0229674Y0262174D01*
X0228461Y0261672D01*
X0227533Y0260743D01*
X0227031Y0259530D01*
X0227031Y0258218D01*
X0227533Y0257005D01*
X0228461Y0256076D01*
X0229674Y0255574D01*
X0231099Y0255620D02*
X0299879Y0255620D01*
X0300635Y0256619D02*
X0232742Y0256619D01*
X0233382Y0257617D02*
X0245242Y0257617D01*
X0245422Y0257543D02*
X0244209Y0258045D01*
X0243281Y0258973D01*
X0242779Y0260186D01*
X0242779Y0261499D01*
X0243281Y0262712D01*
X0244209Y0263640D01*
X0245422Y0264143D01*
X0246735Y0264143D01*
X0246804Y0264114D01*
X0248713Y0266022D01*
X0248684Y0266092D01*
X0248684Y0267404D01*
X0249187Y0268617D01*
X0250115Y0269546D01*
X0251328Y0270048D01*
X0252641Y0270048D01*
X0253854Y0269546D01*
X0254782Y0268617D01*
X0255284Y0267404D01*
X0255284Y0266092D01*
X0254782Y0264879D01*
X0253854Y0263950D01*
X0252641Y0263448D01*
X0251328Y0263448D01*
X0251259Y0263477D01*
X0249350Y0261568D01*
X0249379Y0261499D01*
X0249379Y0260186D01*
X0248876Y0258973D01*
X0247948Y0258045D01*
X0246735Y0257543D01*
X0245422Y0257543D01*
X0246916Y0257617D02*
X0276591Y0257617D01*
X0276591Y0258616D02*
X0248519Y0258616D01*
X0249142Y0259614D02*
X0276591Y0259614D01*
X0276591Y0260613D02*
X0249379Y0260613D01*
X0249393Y0261611D02*
X0276591Y0261611D01*
X0276591Y0262610D02*
X0250392Y0262610D01*
X0253028Y0263608D02*
X0276591Y0263608D01*
X0276591Y0264607D02*
X0254510Y0264607D01*
X0255083Y0265605D02*
X0276591Y0265605D01*
X0276591Y0266604D02*
X0255284Y0266604D01*
X0255202Y0267603D02*
X0276591Y0267603D01*
X0276591Y0268601D02*
X0254789Y0268601D01*
X0253723Y0269600D02*
X0276591Y0269600D01*
X0276100Y0270598D02*
X0240894Y0270598D01*
X0241987Y0269600D02*
X0250245Y0269600D01*
X0249180Y0268601D02*
X0242401Y0268601D01*
X0242489Y0267603D02*
X0248766Y0267603D01*
X0248684Y0266604D02*
X0242294Y0266604D01*
X0241729Y0265605D02*
X0248296Y0265605D01*
X0247298Y0264607D02*
X0240267Y0264607D01*
X0237611Y0263608D02*
X0244178Y0263608D01*
X0243239Y0262610D02*
X0236612Y0262610D01*
X0235614Y0261611D02*
X0242825Y0261611D01*
X0242779Y0260613D02*
X0234615Y0260613D01*
X0233617Y0259614D02*
X0243016Y0259614D01*
X0243638Y0258616D02*
X0233631Y0258616D01*
X0230331Y0258874D02*
X0239189Y0267732D01*
X0235889Y0267603D02*
X0188824Y0267603D01*
X0188824Y0268601D02*
X0235977Y0268601D01*
X0236391Y0269600D02*
X0188824Y0269600D01*
X0188824Y0270598D02*
X0237484Y0270598D01*
X0235515Y0266604D02*
X0188824Y0266604D01*
X0188824Y0271597D02*
X0264445Y0271597D01*
X0263124Y0272595D02*
X0188824Y0272595D01*
X0188824Y0273594D02*
X0262618Y0273594D01*
X0262464Y0274592D02*
X0188824Y0274592D01*
X0188824Y0275591D02*
X0262593Y0275591D01*
X0263064Y0276589D02*
X0188824Y0276589D01*
X0188824Y0277588D02*
X0263964Y0277588D01*
X0263964Y0278586D02*
X0188824Y0278586D01*
X0188824Y0279585D02*
X0263964Y0279585D01*
X0263163Y0280583D02*
X0188824Y0280583D01*
X0188824Y0281582D02*
X0262164Y0281582D01*
X0261166Y0282580D02*
X0188824Y0282580D01*
X0188824Y0283579D02*
X0261011Y0283579D01*
X0261011Y0284577D02*
X0188824Y0284577D01*
X0188458Y0285576D02*
X0261011Y0285576D01*
X0262811Y0283480D02*
X0265764Y0280528D01*
X0265764Y0274622D01*
X0269064Y0274592D02*
X0272106Y0274592D01*
X0271108Y0275591D02*
X0268934Y0275591D01*
X0268464Y0276589D02*
X0270109Y0276589D01*
X0269111Y0277588D02*
X0267564Y0277588D01*
X0267564Y0278586D02*
X0268112Y0278586D01*
X0270208Y0281582D02*
X0276591Y0281582D01*
X0276591Y0282496D02*
X0269294Y0282496D01*
X0276591Y0275199D01*
X0276591Y0282496D01*
X0276591Y0280583D02*
X0271206Y0280583D01*
X0272205Y0279585D02*
X0276591Y0279585D01*
X0276591Y0278586D02*
X0273204Y0278586D01*
X0274202Y0277588D02*
X0276591Y0277588D01*
X0276591Y0276589D02*
X0275201Y0276589D01*
X0276199Y0275591D02*
X0276591Y0275591D01*
X0274103Y0272595D02*
X0268404Y0272595D01*
X0268910Y0273594D02*
X0273105Y0273594D01*
X0275102Y0271597D02*
X0267083Y0271597D01*
X0262811Y0283480D02*
X0262811Y0289386D01*
X0260843Y0291354D01*
X0270685Y0288402D02*
X0278559Y0296276D01*
X0278559Y0295944D01*
X0278559Y0296276D02*
X0278559Y0300213D01*
X0282496Y0296344D02*
X0282496Y0291354D01*
X0282402Y0288402D01*
X0282496Y0288402D01*
X0282496Y0273638D01*
X0282693Y0273047D01*
X0286433Y0264780D02*
X0286433Y0264386D01*
X0286433Y0264780D02*
X0294307Y0264780D01*
X0294307Y0279543D01*
X0305134Y0290370D01*
X0313166Y0294976D02*
X0313992Y0295291D01*
X0325803Y0295291D01*
X0325803Y0299228D01*
X0328756Y0296276D01*
X0329740Y0297260D01*
X0330566Y0297576D01*
X0330724Y0297260D01*
X0341551Y0297260D01*
X0341551Y0296681D01*
X0341551Y0300213D02*
X0346472Y0300213D01*
X0341551Y0300213D02*
X0341551Y0307681D01*
X0341551Y0300213D02*
X0330724Y0300213D01*
X0330566Y0300076D01*
X0328756Y0296276D02*
X0329740Y0295291D01*
X0330566Y0294976D01*
X0330566Y0292476D02*
X0329740Y0292339D01*
X0321866Y0292339D01*
X0321866Y0291354D01*
X0325803Y0299228D02*
X0325803Y0307102D01*
X0324819Y0308087D01*
X0324166Y0308087D01*
X0319566Y0308087D02*
X0313008Y0308087D01*
X0295291Y0297260D02*
X0295291Y0288402D01*
X0294402Y0288402D01*
X0288402Y0291354D02*
X0282496Y0291354D01*
X0282496Y0288402D01*
X0296276Y0276591D02*
X0296276Y0261658D01*
X0304388Y0261658D01*
X0307271Y0264541D01*
X0307271Y0270446D01*
X0308325Y0271501D01*
X0313415Y0276591D01*
X0296276Y0276591D01*
X0296276Y0276589D02*
X0313414Y0276589D01*
X0312415Y0275591D02*
X0296276Y0275591D01*
X0296276Y0274592D02*
X0311417Y0274592D01*
X0310418Y0273594D02*
X0305454Y0273594D01*
X0305247Y0273800D02*
X0303896Y0274360D01*
X0302434Y0274360D01*
X0301084Y0273800D01*
X0300050Y0272767D01*
X0299491Y0271416D01*
X0299491Y0269954D01*
X0300050Y0268603D01*
X0301084Y0267570D01*
X0302434Y0267010D01*
X0303896Y0267010D01*
X0305247Y0267570D01*
X0306281Y0268603D01*
X0306840Y0269954D01*
X0306840Y0271416D01*
X0306281Y0272767D01*
X0305247Y0273800D01*
X0306352Y0272595D02*
X0309420Y0272595D01*
X0308421Y0271597D02*
X0306765Y0271597D01*
X0306840Y0270598D02*
X0307423Y0270598D01*
X0307271Y0269600D02*
X0306693Y0269600D01*
X0306278Y0268601D02*
X0307271Y0268601D01*
X0307271Y0267603D02*
X0305280Y0267603D01*
X0307271Y0266604D02*
X0296276Y0266604D01*
X0296276Y0265605D02*
X0307271Y0265605D01*
X0307271Y0264607D02*
X0296276Y0264607D01*
X0296276Y0263608D02*
X0306338Y0263608D01*
X0305340Y0262610D02*
X0296276Y0262610D01*
X0296276Y0257617D02*
X0301365Y0257617D01*
X0303165Y0257890D02*
X0303165Y0253953D01*
X0303165Y0257890D02*
X0305134Y0259858D01*
X0307436Y0259614D02*
X0330888Y0259614D01*
X0331886Y0260613D02*
X0308434Y0260613D01*
X0309433Y0261611D02*
X0332885Y0261611D01*
X0333883Y0262610D02*
X0310431Y0262610D01*
X0310871Y0263608D02*
X0334882Y0263608D01*
X0335880Y0264607D02*
X0310871Y0264607D01*
X0310871Y0265605D02*
X0336879Y0265605D01*
X0337877Y0266604D02*
X0310871Y0266604D01*
X0310871Y0267603D02*
X0317783Y0267603D01*
X0317816Y0267570D02*
X0319167Y0267010D01*
X0320629Y0267010D01*
X0321979Y0267570D01*
X0323013Y0268603D01*
X0323572Y0269954D01*
X0323572Y0271416D01*
X0323013Y0272767D01*
X0321979Y0273800D01*
X0320629Y0274360D01*
X0319167Y0274360D01*
X0317816Y0273800D01*
X0316782Y0272767D01*
X0316223Y0271416D01*
X0316223Y0269954D01*
X0316782Y0268603D01*
X0317816Y0267570D01*
X0316785Y0268601D02*
X0310871Y0268601D01*
X0311515Y0269600D02*
X0316370Y0269600D01*
X0316223Y0270598D02*
X0312514Y0270598D01*
X0313512Y0271597D02*
X0316298Y0271597D01*
X0316711Y0272595D02*
X0314511Y0272595D01*
X0315509Y0273594D02*
X0317609Y0273594D01*
X0316508Y0274592D02*
X0344280Y0274592D01*
X0344157Y0273594D02*
X0322186Y0273594D01*
X0323084Y0272595D02*
X0343868Y0272595D01*
X0342870Y0271597D02*
X0323498Y0271597D01*
X0323572Y0270598D02*
X0341871Y0270598D01*
X0340873Y0269600D02*
X0323426Y0269600D01*
X0323011Y0268601D02*
X0339874Y0268601D01*
X0338876Y0267603D02*
X0322012Y0267603D01*
X0317506Y0275591D02*
X0344743Y0275591D01*
X0345964Y0269600D02*
X0384314Y0269600D01*
X0384314Y0270598D02*
X0348741Y0270598D01*
X0350082Y0271597D02*
X0384314Y0271597D01*
X0384314Y0272595D02*
X0350597Y0272595D01*
X0344966Y0268601D02*
X0384314Y0268601D01*
X0384314Y0267603D02*
X0343967Y0267603D01*
X0342968Y0266604D02*
X0384314Y0266604D01*
X0384314Y0265605D02*
X0341970Y0265605D01*
X0340971Y0264607D02*
X0384314Y0264607D01*
X0384314Y0263608D02*
X0339973Y0263608D01*
X0338974Y0262610D02*
X0384314Y0262610D01*
X0384314Y0261611D02*
X0337976Y0261611D01*
X0336977Y0260613D02*
X0384314Y0260613D01*
X0384314Y0259614D02*
X0335979Y0259614D01*
X0334980Y0258616D02*
X0384314Y0258616D01*
X0384314Y0257617D02*
X0333982Y0257617D01*
X0332983Y0256619D02*
X0384314Y0256619D01*
X0384314Y0255620D02*
X0331985Y0255620D01*
X0330986Y0254622D02*
X0384314Y0254622D01*
X0384314Y0253623D02*
X0329988Y0253623D01*
X0328989Y0252625D02*
X0384314Y0252625D01*
X0384314Y0251626D02*
X0327991Y0251626D01*
X0326992Y0250628D02*
X0384314Y0250628D01*
X0384314Y0249629D02*
X0325994Y0249629D01*
X0324995Y0248631D02*
X0384314Y0248631D01*
X0384314Y0247632D02*
X0323997Y0247632D01*
X0322998Y0246634D02*
X0384314Y0246634D01*
X0384314Y0245635D02*
X0322000Y0245635D01*
X0321001Y0244637D02*
X0384314Y0244637D01*
X0384314Y0243638D02*
X0320003Y0243638D01*
X0319004Y0242640D02*
X0384314Y0242640D01*
X0384314Y0241641D02*
X0318006Y0241641D01*
X0317007Y0240643D02*
X0384314Y0240643D01*
X0384314Y0239644D02*
X0316009Y0239644D01*
X0315010Y0238646D02*
X0384314Y0238646D01*
X0384314Y0237647D02*
X0314012Y0237647D01*
X0313013Y0236649D02*
X0384314Y0236649D01*
X0384314Y0235650D02*
X0312015Y0235650D01*
X0311016Y0234652D02*
X0384314Y0234652D01*
X0384314Y0233653D02*
X0310018Y0233653D01*
X0309019Y0232655D02*
X0384314Y0232655D01*
X0384314Y0231656D02*
X0308021Y0231656D01*
X0307022Y0230658D02*
X0384314Y0230658D01*
X0384314Y0229659D02*
X0306024Y0229659D01*
X0305025Y0228661D02*
X0384314Y0228661D01*
X0384314Y0227662D02*
X0304027Y0227662D01*
X0303028Y0226664D02*
X0384314Y0226664D01*
X0384314Y0225665D02*
X0302528Y0225665D01*
X0302493Y0224667D02*
X0384314Y0224667D01*
X0384314Y0223668D02*
X0302079Y0223668D01*
X0301155Y0222670D02*
X0384314Y0222670D01*
X0384314Y0221671D02*
X0195882Y0221671D01*
X0195882Y0220672D02*
X0384314Y0220672D01*
X0384314Y0219674D02*
X0195882Y0219674D01*
X0195882Y0218675D02*
X0384314Y0218675D01*
X0384314Y0217677D02*
X0195882Y0217677D01*
X0195882Y0216678D02*
X0384314Y0216678D01*
X0384314Y0215680D02*
X0195882Y0215680D01*
X0195882Y0214681D02*
X0384314Y0214681D01*
X0384314Y0213683D02*
X0195882Y0213683D01*
X0195882Y0212684D02*
X0384314Y0212684D01*
X0384314Y0211686D02*
X0195882Y0211686D01*
X0195882Y0210687D02*
X0384314Y0210687D01*
X0384314Y0209689D02*
X0195882Y0209689D01*
X0195882Y0208690D02*
X0384314Y0208690D01*
X0384314Y0207692D02*
X0195882Y0207692D01*
X0192671Y0243638D02*
X0185071Y0243638D01*
X0185402Y0244637D02*
X0191923Y0244637D01*
X0191598Y0245635D02*
X0185402Y0245635D01*
X0185037Y0246634D02*
X0191598Y0246634D01*
X0184315Y0242640D02*
X0313913Y0242640D01*
X0312915Y0241641D02*
X0153906Y0241641D01*
X0153906Y0240643D02*
X0311916Y0240643D01*
X0310918Y0239644D02*
X0153906Y0239644D01*
X0153906Y0238646D02*
X0309919Y0238646D01*
X0308921Y0237647D02*
X0153906Y0237647D01*
X0153906Y0236649D02*
X0307922Y0236649D01*
X0306923Y0235650D02*
X0153906Y0235650D01*
X0153906Y0234652D02*
X0305925Y0234652D01*
X0304926Y0233653D02*
X0153906Y0233653D01*
X0153906Y0232655D02*
X0303928Y0232655D01*
X0302929Y0231656D02*
X0153906Y0231656D01*
X0153906Y0230658D02*
X0301931Y0230658D01*
X0300932Y0229659D02*
X0153906Y0229659D01*
X0153906Y0228661D02*
X0298454Y0228661D01*
X0296814Y0227662D02*
X0153906Y0227662D01*
X0153906Y0242640D02*
X0179890Y0242640D01*
X0179134Y0243638D02*
X0153906Y0243638D01*
X0153906Y0244637D02*
X0178802Y0244637D01*
X0178802Y0245635D02*
X0153906Y0245635D01*
X0153906Y0246634D02*
X0178017Y0246634D01*
X0177019Y0247632D02*
X0153906Y0247632D01*
X0153906Y0248631D02*
X0176020Y0248631D01*
X0175022Y0249629D02*
X0153906Y0249629D01*
X0153906Y0250628D02*
X0174397Y0250628D01*
X0174397Y0251626D02*
X0153906Y0251626D01*
X0153906Y0252625D02*
X0174397Y0252625D01*
X0174397Y0253623D02*
X0153906Y0253623D01*
X0153906Y0254622D02*
X0174397Y0254622D01*
X0174397Y0255620D02*
X0153906Y0255620D01*
X0153906Y0256619D02*
X0174397Y0256619D01*
X0173924Y0257617D02*
X0153906Y0257617D01*
X0153906Y0258616D02*
X0172925Y0258616D01*
X0171927Y0259614D02*
X0153906Y0259614D01*
X0153906Y0260613D02*
X0170928Y0260613D01*
X0169930Y0261611D02*
X0153906Y0261611D01*
X0153906Y0262610D02*
X0168931Y0262610D01*
X0166295Y0263608D02*
X0153906Y0263608D01*
X0153906Y0264607D02*
X0164813Y0264607D01*
X0164240Y0265605D02*
X0153906Y0265605D01*
X0153906Y0266604D02*
X0164039Y0266604D01*
X0164121Y0267603D02*
X0153906Y0267603D01*
X0153906Y0268601D02*
X0164534Y0268601D01*
X0165599Y0269600D02*
X0153906Y0269600D01*
X0153906Y0270598D02*
X0169801Y0270598D01*
X0169078Y0269600D02*
X0170800Y0269600D01*
X0170143Y0268601D02*
X0171798Y0268601D01*
X0172797Y0267603D02*
X0170557Y0267603D01*
X0170639Y0266604D02*
X0173795Y0266604D01*
X0174794Y0265605D02*
X0171027Y0265605D01*
X0172025Y0264607D02*
X0175792Y0264607D01*
X0176365Y0263608D02*
X0173024Y0263608D01*
X0174022Y0262610D02*
X0176365Y0262610D01*
X0176365Y0261611D02*
X0175021Y0261611D01*
X0176019Y0260613D02*
X0176365Y0260613D01*
X0176197Y0257890D02*
X0176197Y0251000D01*
X0182102Y0245094D01*
X0178165Y0253953D02*
X0178165Y0264780D01*
X0167339Y0275606D01*
X0170639Y0275591D02*
X0174740Y0275591D01*
X0173500Y0276589D02*
X0170503Y0276589D01*
X0170024Y0277588D02*
X0173027Y0277588D01*
X0172897Y0278586D02*
X0168768Y0278586D01*
X0165909Y0278586D02*
X0153906Y0278586D01*
X0153906Y0277588D02*
X0164653Y0277588D01*
X0164174Y0276589D02*
X0153906Y0276589D01*
X0153906Y0275591D02*
X0164039Y0275591D01*
X0164187Y0274592D02*
X0153906Y0274592D01*
X0153906Y0273594D02*
X0164684Y0273594D01*
X0165985Y0272595D02*
X0153906Y0272595D01*
X0153906Y0271597D02*
X0168803Y0271597D01*
X0170898Y0274592D02*
X0177618Y0274592D01*
X0178617Y0273594D02*
X0171897Y0273594D01*
X0172895Y0272595D02*
X0179615Y0272595D01*
X0180302Y0271597D02*
X0173894Y0271597D01*
X0174892Y0270598D02*
X0180302Y0270598D01*
X0180302Y0269600D02*
X0175891Y0269600D01*
X0176889Y0268601D02*
X0180302Y0268601D01*
X0180302Y0267603D02*
X0177888Y0267603D01*
X0178886Y0266604D02*
X0180302Y0266604D01*
X0180302Y0265605D02*
X0179885Y0265605D01*
X0179965Y0264607D02*
X0180302Y0264607D01*
X0180302Y0263608D02*
X0179965Y0263608D01*
X0179965Y0262610D02*
X0180302Y0262610D01*
X0180302Y0261611D02*
X0179965Y0261611D01*
X0179965Y0260613D02*
X0180159Y0260613D01*
X0176197Y0257890D02*
X0167339Y0266748D01*
X0173050Y0279585D02*
X0153906Y0279585D01*
X0153906Y0280583D02*
X0173554Y0280583D01*
X0174871Y0281582D02*
X0169986Y0281582D01*
X0171105Y0282580D02*
X0185224Y0282580D01*
X0185224Y0281582D02*
X0177523Y0281582D01*
X0178840Y0280583D02*
X0185224Y0280583D01*
X0185224Y0279585D02*
X0179344Y0279585D01*
X0166659Y0281582D02*
X0153906Y0281582D01*
X0153906Y0282580D02*
X0165540Y0282580D01*
X0165118Y0283579D02*
X0153906Y0283579D01*
X0153906Y0284577D02*
X0165023Y0284577D01*
X0165211Y0285576D02*
X0153906Y0285576D01*
X0153906Y0286574D02*
X0165766Y0286574D01*
X0153906Y0301552D02*
X0261995Y0301552D01*
X0261995Y0302550D02*
X0153906Y0302550D01*
X0153906Y0303549D02*
X0261995Y0303549D01*
X0261995Y0304547D02*
X0153906Y0304547D01*
X0153906Y0305546D02*
X0261995Y0305546D01*
X0261995Y0306544D02*
X0153906Y0306544D01*
X0153906Y0307543D02*
X0261995Y0307543D01*
X0262689Y0308541D02*
X0153906Y0308541D01*
X0153906Y0309540D02*
X0262811Y0309540D01*
X0296276Y0273594D02*
X0300877Y0273594D01*
X0299979Y0272595D02*
X0296276Y0272595D01*
X0296276Y0271597D02*
X0299565Y0271597D01*
X0299491Y0270598D02*
X0296276Y0270598D01*
X0296276Y0269600D02*
X0299637Y0269600D01*
X0300052Y0268601D02*
X0296276Y0268601D01*
X0296276Y0267603D02*
X0301051Y0267603D01*
X0251984Y0266748D02*
X0246079Y0260843D01*
X0234517Y0265605D02*
X0213502Y0265605D01*
X0214458Y0264607D02*
X0233518Y0264607D01*
X0232520Y0263608D02*
X0214871Y0263608D01*
X0214930Y0262610D02*
X0231521Y0262610D01*
X0228401Y0261611D02*
X0214705Y0261611D01*
X0214099Y0260613D02*
X0227479Y0260613D01*
X0227066Y0259614D02*
X0212536Y0259614D01*
X0209980Y0258616D02*
X0227031Y0258616D01*
X0227279Y0257617D02*
X0208982Y0257617D01*
X0207983Y0256619D02*
X0227919Y0256619D01*
X0206886Y0260613D02*
X0188967Y0260613D01*
X0189881Y0259614D02*
X0205888Y0259614D01*
X0204889Y0258616D02*
X0190295Y0258616D01*
X0190324Y0257617D02*
X0203891Y0257617D01*
D21*
X0211630Y0262811D03*
X0230331Y0258874D03*
X0239189Y0267732D03*
X0246079Y0260843D03*
X0251984Y0266748D03*
X0265764Y0274622D03*
X0260843Y0291354D03*
X0288402Y0291354D03*
X0321866Y0291354D03*
X0347457Y0273638D03*
X0299228Y0225409D03*
X0194898Y0246079D03*
X0182102Y0245094D03*
X0182102Y0250016D03*
X0182102Y0257890D03*
X0187024Y0257890D03*
X0167339Y0266748D03*
X0167339Y0275606D03*
X0176197Y0278559D03*
X0168323Y0284465D03*
D22*
X0313008Y0300213D02*
X0313166Y0300076D01*
M02*
