%
M48
M72
T01C0.02400
T02C0.03150
%
T01
X299228Y225409
X251984Y266748
X246079Y260843
X239189Y267732
X230331Y258874
X211630Y262811
X194898Y246079
X182102Y245094
X182102Y250016
X182102Y257890
X187024Y257890
X167339Y266748
X167339Y275606
X176197Y278559
X168323Y284465
X260843Y291354
X265764Y274622
X288402Y291354
X321866Y291354
X347457Y273638
T02
X319898Y270685
X303165Y270685
X303165Y253953
X319898Y253953
M30
