G75*
%MOIN*%
%OFA0B0*%
%FSLAX25Y25*%
%IPPOS*%
%LPD*%
%AMOC8*
5,1,8,0,0,1.08239X$1,22.5*
%
%ADD10C,0.00000*%
%ADD11C,0.01600*%
%ADD12C,0.00300*%
%ADD13C,0.00600*%
%ADD14C,0.00400*%
%ADD15C,0.00500*%
D10*
X0001000Y0001000D02*
X0001000Y0315961D01*
X0394701Y0315961D01*
X0394701Y0001000D02*
X0001000Y0001000D01*
D11*
X0150606Y0203362D02*
X0387614Y0203362D01*
X0387614Y0314386D01*
X0150606Y0314386D01*
X0150606Y0203362D01*
D12*
X0308237Y0242579D02*
X0308720Y0242095D01*
X0309688Y0242095D01*
X0310172Y0242579D01*
X0310172Y0244997D01*
X0311183Y0244514D02*
X0311667Y0244997D01*
X0312634Y0244997D01*
X0313118Y0244514D01*
X0313118Y0244030D01*
X0311183Y0242095D01*
X0313118Y0242095D01*
X0308237Y0242579D02*
X0308237Y0244997D01*
D13*
X0320198Y0221225D02*
X0321932Y0218623D01*
X0320198Y0218623D02*
X0321932Y0221225D01*
X0323144Y0219924D02*
X0324879Y0219924D01*
X0324445Y0218623D02*
X0324445Y0221225D01*
X0323144Y0219924D01*
X0333583Y0212130D02*
X0333583Y0210395D01*
X0334017Y0209961D01*
X0334885Y0209961D01*
X0335318Y0210395D01*
X0336530Y0210395D02*
X0336964Y0209961D01*
X0337831Y0209961D01*
X0338265Y0210395D01*
X0338265Y0210829D01*
X0337831Y0211263D01*
X0336530Y0211263D01*
X0336530Y0210395D01*
X0336530Y0211263D02*
X0337397Y0212130D01*
X0338265Y0212564D01*
X0339762Y0211630D02*
X0342762Y0211630D01*
X0341262Y0213130D02*
X0341262Y0210130D01*
X0335318Y0212130D02*
X0334885Y0212564D01*
X0334017Y0212564D01*
X0333583Y0212130D01*
X0336733Y0220985D02*
X0338468Y0223587D01*
X0339680Y0223154D02*
X0340113Y0223587D01*
X0340981Y0223587D01*
X0341414Y0223154D01*
X0341414Y0222720D01*
X0340981Y0222286D01*
X0341414Y0221852D01*
X0341414Y0221419D01*
X0340981Y0220985D01*
X0340113Y0220985D01*
X0339680Y0221419D01*
X0340547Y0222286D02*
X0340981Y0222286D01*
X0338468Y0220985D02*
X0336733Y0223587D01*
X0337167Y0232796D02*
X0338034Y0232796D01*
X0338468Y0233230D01*
X0337167Y0232796D02*
X0336733Y0233230D01*
X0336733Y0234965D01*
X0337167Y0235398D01*
X0338034Y0235398D01*
X0338468Y0234965D01*
X0339680Y0234097D02*
X0341414Y0234097D01*
X0340981Y0232796D02*
X0340981Y0235398D01*
X0339680Y0234097D01*
X0343957Y0234358D02*
X0343957Y0235358D01*
X0350957Y0235358D02*
X0350957Y0234358D01*
X0359273Y0234815D02*
X0359273Y0237215D01*
X0367442Y0243466D02*
X0367875Y0243032D01*
X0368743Y0243032D01*
X0369177Y0243466D01*
X0370388Y0243466D02*
X0370822Y0243032D01*
X0371689Y0243032D01*
X0372123Y0243466D01*
X0372123Y0243900D01*
X0371689Y0244333D01*
X0371256Y0244333D01*
X0371689Y0244333D02*
X0372123Y0244767D01*
X0372123Y0245201D01*
X0371689Y0245634D01*
X0370822Y0245634D01*
X0370388Y0245201D01*
X0369177Y0245201D02*
X0368743Y0245634D01*
X0367875Y0245634D01*
X0367442Y0245201D01*
X0367442Y0243466D01*
X0371073Y0237215D02*
X0371073Y0234815D01*
X0374528Y0234611D02*
X0374528Y0232442D01*
X0374962Y0232009D01*
X0375829Y0232009D01*
X0376263Y0232442D01*
X0376263Y0234611D01*
X0377475Y0234177D02*
X0377909Y0234611D01*
X0378776Y0234611D01*
X0379210Y0234177D01*
X0379210Y0233743D01*
X0377475Y0232009D01*
X0379210Y0232009D01*
X0377772Y0230742D02*
X0377772Y0227742D01*
X0379272Y0229242D02*
X0376272Y0229242D01*
X0371073Y0227815D02*
X0371073Y0225415D01*
X0374272Y0217642D02*
X0374272Y0216642D01*
X0381272Y0216642D02*
X0381272Y0217642D01*
X0369761Y0207839D02*
X0368026Y0207839D01*
X0368026Y0206538D01*
X0368893Y0206972D01*
X0369327Y0206972D01*
X0369761Y0206538D01*
X0369761Y0205671D01*
X0369327Y0205237D01*
X0368460Y0205237D01*
X0368026Y0205671D01*
X0366814Y0205237D02*
X0365080Y0207839D01*
X0366814Y0207839D02*
X0365080Y0205237D01*
X0353862Y0208130D02*
X0352862Y0208130D01*
X0352862Y0215130D02*
X0353862Y0215130D01*
X0359273Y0225415D02*
X0359273Y0227815D01*
X0347457Y0245458D02*
X0347457Y0248458D01*
X0348957Y0246958D02*
X0345957Y0246958D01*
X0346766Y0254056D02*
X0348501Y0254056D01*
X0347634Y0254056D02*
X0347634Y0256658D01*
X0346766Y0255791D01*
X0345554Y0256224D02*
X0345121Y0256658D01*
X0344253Y0256658D01*
X0343820Y0256224D01*
X0343820Y0254490D01*
X0344253Y0254056D01*
X0345121Y0254056D01*
X0345554Y0254490D01*
X0345979Y0259568D02*
X0345979Y0260001D01*
X0347714Y0261736D01*
X0347714Y0262170D01*
X0345979Y0262170D01*
X0344767Y0261736D02*
X0344767Y0260869D01*
X0344333Y0260435D01*
X0343032Y0260435D01*
X0343032Y0259568D02*
X0343032Y0262170D01*
X0344333Y0262170D01*
X0344767Y0261736D01*
X0343900Y0260435D02*
X0344767Y0259568D01*
X0358836Y0265217D02*
X0363636Y0265217D01*
X0364452Y0262170D02*
X0362717Y0259568D01*
X0364452Y0259568D02*
X0362717Y0262170D01*
X0365664Y0260869D02*
X0366965Y0260869D01*
X0367399Y0260435D01*
X0367399Y0260001D01*
X0366965Y0259568D01*
X0366098Y0259568D01*
X0365664Y0260001D01*
X0365664Y0260869D01*
X0366531Y0261736D01*
X0367399Y0262170D01*
X0373741Y0262170D02*
X0373741Y0259568D01*
X0373741Y0260435D02*
X0375042Y0260435D01*
X0375476Y0260869D01*
X0375476Y0261736D01*
X0375042Y0262170D01*
X0373741Y0262170D01*
X0374608Y0260435D02*
X0375476Y0259568D01*
X0376687Y0259568D02*
X0378422Y0259568D01*
X0377555Y0259568D02*
X0377555Y0262170D01*
X0376687Y0261303D01*
X0376891Y0251146D02*
X0378625Y0248544D01*
X0379837Y0248544D02*
X0381572Y0250279D01*
X0381572Y0250713D01*
X0381138Y0251146D01*
X0380271Y0251146D01*
X0379837Y0250713D01*
X0378625Y0251146D02*
X0376891Y0248544D01*
X0379837Y0248544D02*
X0381572Y0248544D01*
X0380828Y0271379D02*
X0380828Y0273981D01*
X0382129Y0273981D01*
X0382562Y0273547D01*
X0382562Y0272680D01*
X0382129Y0272246D01*
X0380828Y0272246D01*
X0381695Y0272246D02*
X0382562Y0271379D01*
X0383774Y0271379D02*
X0385509Y0273114D01*
X0385509Y0273547D01*
X0385075Y0273981D01*
X0384208Y0273981D01*
X0383774Y0273547D01*
X0383774Y0271379D02*
X0385509Y0271379D01*
X0364833Y0275749D02*
X0364400Y0275316D01*
X0363532Y0275316D01*
X0363099Y0275749D01*
X0364833Y0277484D01*
X0364833Y0275749D01*
X0363099Y0275749D02*
X0363099Y0277484D01*
X0363532Y0277918D01*
X0364400Y0277918D01*
X0364833Y0277484D01*
X0361887Y0275316D02*
X0360152Y0275316D01*
X0361019Y0275316D02*
X0361019Y0277918D01*
X0360152Y0277051D01*
X0358940Y0277484D02*
X0358507Y0277918D01*
X0357639Y0277918D01*
X0357206Y0277484D01*
X0357206Y0275749D01*
X0357639Y0275316D01*
X0358507Y0275316D01*
X0358940Y0275749D01*
X0358836Y0272217D02*
X0363636Y0272217D01*
X0354367Y0281615D02*
X0353499Y0281615D01*
X0353065Y0282049D01*
X0351854Y0282049D02*
X0351854Y0284217D01*
X0353065Y0283783D02*
X0353499Y0284217D01*
X0354367Y0284217D01*
X0354800Y0283783D01*
X0354800Y0283350D01*
X0354367Y0282916D01*
X0354800Y0282482D01*
X0354800Y0282049D01*
X0354367Y0281615D01*
X0354367Y0282916D02*
X0353933Y0282916D01*
X0351854Y0282049D02*
X0351420Y0281615D01*
X0350553Y0281615D01*
X0350119Y0282049D01*
X0350119Y0284217D01*
X0341334Y0280280D02*
X0341334Y0277678D01*
X0340467Y0277678D02*
X0342202Y0277678D01*
X0340467Y0279413D02*
X0341334Y0280280D01*
X0339255Y0280280D02*
X0337520Y0277678D01*
X0339255Y0277678D02*
X0337520Y0280280D01*
X0205194Y0272166D02*
X0203459Y0272166D01*
X0204327Y0272166D02*
X0204327Y0274768D01*
X0203459Y0273901D01*
X0202247Y0274768D02*
X0202247Y0272600D01*
X0201814Y0272166D01*
X0200946Y0272166D01*
X0200513Y0272600D01*
X0200513Y0274768D01*
D14*
X0200350Y0293326D02*
X0199016Y0293326D01*
X0199683Y0293326D02*
X0199683Y0295328D01*
X0199016Y0294660D01*
X0198140Y0293326D02*
X0196806Y0293326D01*
X0197473Y0293326D02*
X0197473Y0295328D01*
X0196806Y0294660D01*
X0195931Y0294327D02*
X0194596Y0294327D01*
X0193721Y0294660D02*
X0193721Y0294994D01*
X0193387Y0295328D01*
X0192720Y0295328D01*
X0192386Y0294994D01*
X0191511Y0295328D02*
X0190844Y0295328D01*
X0191177Y0295328D02*
X0191177Y0293660D01*
X0190844Y0293326D01*
X0190510Y0293326D01*
X0190176Y0293660D01*
X0192386Y0293326D02*
X0193721Y0294660D01*
X0193721Y0293326D02*
X0192386Y0293326D01*
X0187904Y0293326D02*
X0186570Y0293326D01*
X0187237Y0293326D02*
X0187237Y0295328D01*
X0186570Y0294660D01*
X0185694Y0294327D02*
X0184360Y0294327D01*
X0183485Y0294660D02*
X0183485Y0294994D01*
X0183151Y0295328D01*
X0182484Y0295328D01*
X0182150Y0294994D01*
X0181275Y0295328D02*
X0180607Y0295328D01*
X0180941Y0295328D02*
X0180941Y0293660D01*
X0180607Y0293326D01*
X0180274Y0293326D01*
X0179940Y0293660D01*
X0182150Y0293326D02*
X0183485Y0294660D01*
X0183485Y0293326D02*
X0182150Y0293326D01*
X0177516Y0293660D02*
X0177182Y0293326D01*
X0176515Y0293326D01*
X0176181Y0293660D01*
X0177516Y0294994D01*
X0177516Y0293660D01*
X0177516Y0294994D02*
X0177182Y0295328D01*
X0176515Y0295328D01*
X0176181Y0294994D01*
X0176181Y0293660D01*
X0175306Y0293326D02*
X0173971Y0293326D01*
X0174639Y0293326D02*
X0174639Y0295328D01*
X0173971Y0294660D01*
X0173096Y0294327D02*
X0171761Y0294327D01*
X0170886Y0294660D02*
X0170886Y0294994D01*
X0170552Y0295328D01*
X0169885Y0295328D01*
X0169552Y0294994D01*
X0168676Y0295328D02*
X0168009Y0295328D01*
X0168343Y0295328D02*
X0168343Y0293660D01*
X0168009Y0293326D01*
X0167675Y0293326D01*
X0167342Y0293660D01*
X0169552Y0293326D02*
X0170886Y0294660D01*
X0170886Y0293326D02*
X0169552Y0293326D01*
X0201987Y0293660D02*
X0202321Y0293326D01*
X0202655Y0293326D01*
X0202988Y0293660D01*
X0202988Y0295328D01*
X0202655Y0295328D02*
X0203322Y0295328D01*
X0204197Y0294994D02*
X0204531Y0295328D01*
X0205198Y0295328D01*
X0205532Y0294994D01*
X0205532Y0294660D01*
X0204197Y0293326D01*
X0205532Y0293326D01*
X0206407Y0294327D02*
X0207742Y0294327D01*
X0208617Y0294660D02*
X0209284Y0295328D01*
X0209284Y0293326D01*
X0208617Y0293326D02*
X0209952Y0293326D01*
X0210827Y0293326D02*
X0212161Y0294660D01*
X0212161Y0294994D01*
X0211828Y0295328D01*
X0211161Y0295328D01*
X0210827Y0294994D01*
X0210827Y0293326D02*
X0212161Y0293326D01*
X0213011Y0293660D02*
X0213345Y0293326D01*
X0213678Y0293326D01*
X0214012Y0293660D01*
X0214012Y0295328D01*
X0214345Y0295328D02*
X0213678Y0295328D01*
X0215221Y0294660D02*
X0215888Y0295328D01*
X0215888Y0293326D01*
X0215221Y0293326D02*
X0216555Y0293326D01*
X0217431Y0294327D02*
X0218765Y0294327D01*
X0219641Y0294660D02*
X0220308Y0295328D01*
X0220308Y0293326D01*
X0219641Y0293326D02*
X0220975Y0293326D01*
X0221851Y0293326D02*
X0223185Y0294660D01*
X0223185Y0294994D01*
X0222851Y0295328D01*
X0222184Y0295328D01*
X0221851Y0294994D01*
X0221851Y0293326D02*
X0223185Y0293326D01*
X0224822Y0293660D02*
X0225156Y0293326D01*
X0225489Y0293326D01*
X0225823Y0293660D01*
X0225823Y0295328D01*
X0225489Y0295328D02*
X0226157Y0295328D01*
X0227032Y0294660D02*
X0227699Y0295328D01*
X0227699Y0293326D01*
X0227032Y0293326D02*
X0228366Y0293326D01*
X0229242Y0294327D02*
X0230576Y0294327D01*
X0231452Y0294660D02*
X0232119Y0295328D01*
X0232119Y0293326D01*
X0231452Y0293326D02*
X0232786Y0293326D01*
X0233662Y0293326D02*
X0234996Y0293326D01*
X0234329Y0293326D02*
X0234329Y0295328D01*
X0233662Y0294660D01*
X0237420Y0293660D02*
X0237754Y0293326D01*
X0238088Y0293326D01*
X0238421Y0293660D01*
X0238421Y0295328D01*
X0238088Y0295328D02*
X0238755Y0295328D01*
X0239630Y0294660D02*
X0240298Y0295328D01*
X0240298Y0293326D01*
X0240965Y0293326D02*
X0239630Y0293326D01*
X0241840Y0294327D02*
X0243175Y0294327D01*
X0244050Y0294660D02*
X0244717Y0295328D01*
X0244717Y0293326D01*
X0244050Y0293326D02*
X0245385Y0293326D01*
X0246260Y0293660D02*
X0247594Y0294994D01*
X0247594Y0293660D01*
X0247261Y0293326D01*
X0246594Y0293326D01*
X0246260Y0293660D01*
X0246260Y0294994D01*
X0246594Y0295328D01*
X0247261Y0295328D01*
X0247594Y0294994D01*
X0250019Y0293660D02*
X0250353Y0293326D01*
X0250686Y0293326D01*
X0251020Y0293660D01*
X0251020Y0295328D01*
X0251353Y0295328D02*
X0250686Y0295328D01*
X0252229Y0294660D02*
X0252896Y0295328D01*
X0252896Y0293326D01*
X0252229Y0293326D02*
X0253563Y0293326D01*
X0254439Y0294327D02*
X0255773Y0294327D01*
X0256649Y0294660D02*
X0256982Y0294327D01*
X0257983Y0294327D01*
X0257983Y0293660D02*
X0257983Y0294994D01*
X0257649Y0295328D01*
X0256982Y0295328D01*
X0256649Y0294994D01*
X0256649Y0294660D01*
X0256649Y0293660D02*
X0256982Y0293326D01*
X0257649Y0293326D01*
X0257983Y0293660D01*
X0268796Y0285879D02*
X0269464Y0285879D01*
X0269130Y0285879D02*
X0269130Y0284211D01*
X0268796Y0283877D01*
X0268463Y0283877D01*
X0268129Y0284211D01*
X0270339Y0283877D02*
X0271673Y0283877D01*
X0271006Y0283877D02*
X0271006Y0285879D01*
X0270339Y0285212D01*
X0272549Y0284878D02*
X0273883Y0284878D01*
X0274759Y0285212D02*
X0275426Y0285879D01*
X0275426Y0283877D01*
X0274759Y0283877D02*
X0276093Y0283877D01*
X0275880Y0270918D02*
X0276547Y0270918D01*
X0276881Y0270585D01*
X0276881Y0270251D01*
X0276547Y0269917D01*
X0275880Y0269917D01*
X0275546Y0270251D01*
X0275546Y0270585D01*
X0275880Y0270918D01*
X0275880Y0269917D02*
X0275546Y0269584D01*
X0275546Y0269250D01*
X0275880Y0268917D01*
X0276547Y0268917D01*
X0276881Y0269250D01*
X0276881Y0269584D01*
X0276547Y0269917D01*
X0274671Y0269917D02*
X0273336Y0269917D01*
X0272461Y0268917D02*
X0271126Y0268917D01*
X0271794Y0268917D02*
X0271794Y0270918D01*
X0271126Y0270251D01*
X0270251Y0270918D02*
X0269584Y0270918D01*
X0269917Y0270918D02*
X0269917Y0269250D01*
X0269584Y0268917D01*
X0269250Y0268917D01*
X0268917Y0269250D01*
X0269584Y0263044D02*
X0270251Y0263044D01*
X0269917Y0263044D02*
X0269917Y0261376D01*
X0269584Y0261043D01*
X0269250Y0261043D01*
X0268917Y0261376D01*
X0271126Y0261043D02*
X0272461Y0261043D01*
X0271794Y0261043D02*
X0271794Y0263044D01*
X0271126Y0262377D01*
X0273336Y0262043D02*
X0274671Y0262043D01*
X0275546Y0261376D02*
X0275546Y0261043D01*
X0275546Y0261376D02*
X0276881Y0262711D01*
X0276881Y0263044D01*
X0275546Y0263044D01*
X0276881Y0253595D02*
X0276213Y0253262D01*
X0275546Y0252595D01*
X0276547Y0252595D01*
X0276881Y0252261D01*
X0276881Y0251927D01*
X0276547Y0251594D01*
X0275880Y0251594D01*
X0275546Y0251927D01*
X0275546Y0252595D01*
X0274671Y0252595D02*
X0273336Y0252595D01*
X0272461Y0251594D02*
X0271126Y0251594D01*
X0271794Y0251594D02*
X0271794Y0253595D01*
X0271126Y0252928D01*
X0270251Y0253595D02*
X0269584Y0253595D01*
X0269917Y0253595D02*
X0269917Y0251927D01*
X0269584Y0251594D01*
X0269250Y0251594D01*
X0268917Y0251927D01*
X0269584Y0243359D02*
X0270251Y0243359D01*
X0269917Y0243359D02*
X0269917Y0241691D01*
X0269584Y0241357D01*
X0269250Y0241357D01*
X0268917Y0241691D01*
X0271126Y0241357D02*
X0272461Y0241357D01*
X0271794Y0241357D02*
X0271794Y0243359D01*
X0271126Y0242692D01*
X0273336Y0242358D02*
X0274671Y0242358D01*
X0275546Y0242358D02*
X0276213Y0242692D01*
X0276547Y0242692D01*
X0276881Y0242358D01*
X0276881Y0241691D01*
X0276547Y0241357D01*
X0275880Y0241357D01*
X0275546Y0241691D01*
X0275546Y0242358D02*
X0275546Y0243359D01*
X0276881Y0243359D01*
X0276547Y0233910D02*
X0275546Y0232910D01*
X0276881Y0232910D01*
X0276547Y0233910D02*
X0276547Y0231909D01*
X0274671Y0232910D02*
X0273336Y0232910D01*
X0272461Y0231909D02*
X0271126Y0231909D01*
X0271794Y0231909D02*
X0271794Y0233910D01*
X0271126Y0233243D01*
X0270251Y0233910D02*
X0269584Y0233910D01*
X0269917Y0233910D02*
X0269917Y0232242D01*
X0269584Y0231909D01*
X0269250Y0231909D01*
X0268917Y0232242D01*
X0268644Y0223674D02*
X0268644Y0221672D01*
X0267977Y0221672D02*
X0269311Y0221672D01*
X0270187Y0222673D02*
X0271521Y0222673D01*
X0272397Y0222006D02*
X0272730Y0221672D01*
X0273397Y0221672D01*
X0273731Y0222006D01*
X0273731Y0222340D01*
X0273397Y0222673D01*
X0273064Y0222673D01*
X0273397Y0222673D02*
X0273731Y0223007D01*
X0273731Y0223341D01*
X0273397Y0223674D01*
X0272730Y0223674D01*
X0272397Y0223341D01*
X0268644Y0223674D02*
X0267977Y0223007D01*
X0267101Y0223674D02*
X0266434Y0223674D01*
X0266768Y0223674D02*
X0266768Y0222006D01*
X0266434Y0221672D01*
X0266101Y0221672D01*
X0265767Y0222006D01*
X0268009Y0212651D02*
X0268676Y0212651D01*
X0268343Y0212651D02*
X0268343Y0210982D01*
X0268009Y0210649D01*
X0267675Y0210649D01*
X0267342Y0210982D01*
X0269552Y0210649D02*
X0270886Y0210649D01*
X0270219Y0210649D02*
X0270219Y0212651D01*
X0269552Y0211983D01*
X0271761Y0211650D02*
X0273096Y0211650D01*
X0273971Y0212317D02*
X0274305Y0212651D01*
X0274972Y0212651D01*
X0275306Y0212317D01*
X0275306Y0211983D01*
X0273971Y0210649D01*
X0275306Y0210649D01*
X0168517Y0233030D02*
X0168517Y0233363D01*
X0168183Y0233697D01*
X0166515Y0233697D01*
X0166515Y0233363D02*
X0166515Y0234031D01*
X0166848Y0234906D02*
X0166515Y0235240D01*
X0166515Y0235907D01*
X0166848Y0236240D01*
X0167182Y0236240D01*
X0168517Y0234906D01*
X0168517Y0236240D01*
X0167516Y0237116D02*
X0167516Y0238450D01*
X0166848Y0239326D02*
X0166515Y0239659D01*
X0166515Y0240327D01*
X0166848Y0240660D01*
X0167182Y0240660D01*
X0168517Y0239326D01*
X0168517Y0240660D01*
X0167516Y0243745D02*
X0167516Y0245080D01*
X0168517Y0245955D02*
X0167516Y0247290D01*
X0166515Y0245955D01*
X0168183Y0250375D02*
X0168517Y0250709D01*
X0168517Y0251042D01*
X0168183Y0251376D01*
X0166515Y0251376D01*
X0166515Y0251042D02*
X0166515Y0251710D01*
X0166848Y0252585D02*
X0166515Y0252919D01*
X0166515Y0253586D01*
X0166848Y0253919D01*
X0167182Y0253919D01*
X0168517Y0252585D01*
X0168517Y0253919D01*
X0167516Y0254795D02*
X0167516Y0256129D01*
X0167182Y0257005D02*
X0167516Y0257338D01*
X0167516Y0258339D01*
X0168183Y0258339D02*
X0166848Y0258339D01*
X0166515Y0258006D01*
X0166515Y0257338D01*
X0166848Y0257005D01*
X0167182Y0257005D01*
X0168183Y0257005D02*
X0168517Y0257338D01*
X0168517Y0258006D01*
X0168183Y0258339D01*
X0168517Y0233030D02*
X0168183Y0232696D01*
D15*
X0171492Y0206581D02*
X0171492Y0268490D01*
X0207516Y0268490D01*
X0207516Y0206581D01*
X0171492Y0206581D01*
X0296276Y0247063D02*
X0296276Y0277575D01*
X0326787Y0277575D01*
X0326787Y0247063D01*
X0296276Y0247063D01*
X0323835Y0275606D02*
X0323837Y0275668D01*
X0323843Y0275731D01*
X0323853Y0275792D01*
X0323867Y0275853D01*
X0323884Y0275913D01*
X0323905Y0275972D01*
X0323931Y0276029D01*
X0323959Y0276084D01*
X0323991Y0276138D01*
X0324027Y0276189D01*
X0324065Y0276239D01*
X0324107Y0276285D01*
X0324151Y0276329D01*
X0324199Y0276370D01*
X0324248Y0276408D01*
X0324300Y0276442D01*
X0324354Y0276473D01*
X0324410Y0276501D01*
X0324468Y0276525D01*
X0324527Y0276546D01*
X0324587Y0276562D01*
X0324648Y0276575D01*
X0324710Y0276584D01*
X0324772Y0276589D01*
X0324835Y0276590D01*
X0324897Y0276587D01*
X0324959Y0276580D01*
X0325021Y0276569D01*
X0325081Y0276554D01*
X0325141Y0276536D01*
X0325199Y0276514D01*
X0325256Y0276488D01*
X0325311Y0276458D01*
X0325364Y0276425D01*
X0325415Y0276389D01*
X0325463Y0276350D01*
X0325509Y0276307D01*
X0325552Y0276262D01*
X0325592Y0276214D01*
X0325629Y0276164D01*
X0325663Y0276111D01*
X0325694Y0276057D01*
X0325720Y0276001D01*
X0325744Y0275943D01*
X0325763Y0275883D01*
X0325779Y0275823D01*
X0325791Y0275761D01*
X0325799Y0275700D01*
X0325803Y0275637D01*
X0325803Y0275575D01*
X0325799Y0275512D01*
X0325791Y0275451D01*
X0325779Y0275389D01*
X0325763Y0275329D01*
X0325744Y0275269D01*
X0325720Y0275211D01*
X0325694Y0275155D01*
X0325663Y0275101D01*
X0325629Y0275048D01*
X0325592Y0274998D01*
X0325552Y0274950D01*
X0325509Y0274905D01*
X0325463Y0274862D01*
X0325415Y0274823D01*
X0325364Y0274787D01*
X0325311Y0274754D01*
X0325256Y0274724D01*
X0325199Y0274698D01*
X0325141Y0274676D01*
X0325081Y0274658D01*
X0325021Y0274643D01*
X0324959Y0274632D01*
X0324897Y0274625D01*
X0324835Y0274622D01*
X0324772Y0274623D01*
X0324710Y0274628D01*
X0324648Y0274637D01*
X0324587Y0274650D01*
X0324527Y0274666D01*
X0324468Y0274687D01*
X0324410Y0274711D01*
X0324354Y0274739D01*
X0324300Y0274770D01*
X0324248Y0274804D01*
X0324199Y0274842D01*
X0324151Y0274883D01*
X0324107Y0274927D01*
X0324065Y0274973D01*
X0324027Y0275023D01*
X0323991Y0275074D01*
X0323959Y0275128D01*
X0323931Y0275183D01*
X0323905Y0275240D01*
X0323884Y0275299D01*
X0323867Y0275359D01*
X0323853Y0275420D01*
X0323843Y0275481D01*
X0323837Y0275544D01*
X0323835Y0275606D01*
M02*
