G75*
%MOIN*%
%OFA0B0*%
%FSLAX25Y25*%
%IPPOS*%
%LPD*%
%AMOC8*
5,1,8,0,0,1.08239X$1,22.5*
%
%ADD10R,0.06600X0.06800*%
%ADD11R,0.06800X0.06600*%
%ADD12R,0.09449X0.09449*%
%ADD13R,0.00960X0.03360*%
%ADD14R,0.10620X0.07320*%
%ADD15C,0.05700*%
%ADD16R,0.03543X0.10433*%
%ADD17C,0.02362*%
%ADD18R,0.04320X0.07820*%
%ADD19R,0.02160X0.02760*%
%ADD20R,0.03080X0.02880*%
%ADD21R,0.02880X0.03080*%
%ADD22C,0.04800*%
D10*
X0347457Y0230458D03*
X0347457Y0239258D03*
X0377772Y0221542D03*
X0377772Y0212742D03*
D11*
X0357762Y0211630D03*
X0348962Y0211630D03*
D12*
X0347457Y0221472D03*
X0367142Y0214780D03*
X0378559Y0241157D03*
X0365173Y0252969D03*
X0339583Y0270685D03*
X0322260Y0213205D03*
X0258874Y0212811D03*
X0258874Y0223441D03*
X0258874Y0233283D03*
X0258874Y0243126D03*
X0258874Y0252969D03*
X0258874Y0262811D03*
X0258874Y0272654D03*
X0258874Y0284465D03*
X0254150Y0302969D03*
X0242339Y0302969D03*
X0229740Y0302969D03*
X0218717Y0302969D03*
X0206906Y0302969D03*
X0195094Y0302969D03*
X0183283Y0302969D03*
X0171472Y0302969D03*
X0159661Y0302969D03*
X0159661Y0293126D03*
X0159661Y0283283D03*
X0159661Y0273441D03*
X0159661Y0263598D03*
X0159661Y0253756D03*
X0159661Y0243913D03*
X0159661Y0234071D03*
D13*
X0361273Y0237015D03*
X0363173Y0237015D03*
X0365173Y0237015D03*
X0367173Y0237015D03*
X0369073Y0237015D03*
X0369073Y0225615D03*
X0367173Y0225615D03*
X0365173Y0225615D03*
X0363173Y0225615D03*
X0361273Y0225615D03*
D14*
X0365173Y0231315D03*
D15*
X0319898Y0253953D03*
X0303165Y0253953D03*
X0303165Y0270685D03*
X0319898Y0270685D03*
D16*
X0358874Y0286039D03*
X0363874Y0286039D03*
X0368874Y0286039D03*
X0373874Y0286039D03*
X0378874Y0286039D03*
X0378874Y0301787D03*
X0373874Y0301787D03*
X0368874Y0301787D03*
X0363874Y0301787D03*
X0358874Y0301787D03*
D17*
X0207122Y0209435D02*
X0201216Y0209435D01*
X0201216Y0212585D02*
X0207122Y0212585D01*
X0207122Y0215734D02*
X0201216Y0215734D01*
X0201216Y0218884D02*
X0207122Y0218884D01*
X0207122Y0222033D02*
X0201216Y0222033D01*
X0201216Y0225183D02*
X0207122Y0225183D01*
X0207122Y0228333D02*
X0201216Y0228333D01*
X0201216Y0231482D02*
X0207122Y0231482D01*
X0207122Y0234632D02*
X0201216Y0234632D01*
X0201216Y0237781D02*
X0207122Y0237781D01*
X0207122Y0240931D02*
X0201216Y0240931D01*
X0201216Y0244081D02*
X0207122Y0244081D01*
X0207122Y0247230D02*
X0201216Y0247230D01*
X0201216Y0250380D02*
X0207122Y0250380D01*
X0207122Y0253530D02*
X0201216Y0253530D01*
X0201216Y0256679D02*
X0207122Y0256679D01*
X0207122Y0259829D02*
X0201216Y0259829D01*
X0201216Y0262978D02*
X0207122Y0262978D01*
X0197378Y0262191D02*
X0197378Y0268097D01*
X0194228Y0268097D02*
X0194228Y0262191D01*
X0191079Y0262191D02*
X0191079Y0268097D01*
X0187929Y0268097D02*
X0187929Y0262191D01*
X0184780Y0262191D02*
X0184780Y0268097D01*
X0181630Y0268097D02*
X0181630Y0262191D01*
X0177792Y0262978D02*
X0171886Y0262978D01*
X0171886Y0259829D02*
X0177792Y0259829D01*
X0177792Y0256679D02*
X0171886Y0256679D01*
X0171886Y0253530D02*
X0177792Y0253530D01*
X0177792Y0250380D02*
X0171886Y0250380D01*
X0171886Y0247230D02*
X0177792Y0247230D01*
X0177792Y0244081D02*
X0171886Y0244081D01*
X0171886Y0240931D02*
X0177792Y0240931D01*
X0177792Y0237781D02*
X0171886Y0237781D01*
X0171886Y0234632D02*
X0177792Y0234632D01*
X0177792Y0231482D02*
X0171886Y0231482D01*
X0171886Y0228333D02*
X0177792Y0228333D01*
D18*
X0355736Y0268717D03*
X0366736Y0268717D03*
D19*
X0356050Y0254937D03*
X0352250Y0254937D03*
X0359336Y0244701D03*
X0363136Y0244701D03*
D20*
X0356450Y0261236D03*
X0351850Y0261236D03*
X0372716Y0266748D03*
X0377316Y0266748D03*
D21*
X0376984Y0270354D03*
X0376984Y0274954D03*
D22*
X0347457Y0273638D03*
X0321866Y0291354D03*
X0288402Y0291354D03*
X0265764Y0274622D03*
X0251984Y0266748D03*
X0246079Y0260843D03*
X0239189Y0267732D03*
X0230331Y0258874D03*
X0211630Y0262811D03*
X0194898Y0246079D03*
X0182102Y0245094D03*
X0182102Y0250016D03*
X0182102Y0257890D03*
X0187024Y0257890D03*
X0167339Y0266748D03*
X0167339Y0275606D03*
X0176197Y0278559D03*
X0168323Y0284465D03*
X0260843Y0291354D03*
X0299228Y0225409D03*
M02*
