G75*
%MOIN*%
%OFA0B0*%
%FSLAX25Y25*%
%IPPOS*%
%LPD*%
%AMOC8*
5,1,8,0,0,1.08239X$1,22.5*
%
%ADD10C,0.00000*%
%ADD11C,0.01600*%
%ADD12R,0.05500X0.05700*%
%ADD13R,0.05700X0.05500*%
%ADD14R,0.07874X0.07874*%
%ADD15R,0.00800X0.03200*%
%ADD16R,0.09400X0.06100*%
%ADD17C,0.00500*%
%ADD18C,0.04750*%
%ADD19R,0.02953X0.09843*%
%ADD20C,0.01969*%
%ADD21R,0.03600X0.07100*%
%ADD22R,0.01800X0.02400*%
%ADD23R,0.02600X0.02400*%
%ADD24R,0.02400X0.02600*%
%ADD25C,0.01000*%
%ADD26C,0.04000*%
D10*
X0001000Y0001000D02*
X0001000Y0315961D01*
X0394701Y0315961D01*
X0394701Y0001000D02*
X0001000Y0001000D01*
D11*
X0150606Y0203362D02*
X0387614Y0203362D01*
X0387614Y0314386D01*
X0150606Y0314386D01*
X0150606Y0203362D01*
D12*
X0347457Y0230458D03*
X0347457Y0239258D03*
X0377772Y0221542D03*
X0377772Y0212742D03*
D13*
X0357762Y0211630D03*
X0348962Y0211630D03*
D14*
X0347457Y0221472D03*
X0367142Y0214780D03*
X0378559Y0241157D03*
X0365173Y0252969D03*
X0339583Y0270685D03*
X0322260Y0213205D03*
X0258874Y0212811D03*
X0258874Y0223441D03*
X0258874Y0233283D03*
X0258874Y0243126D03*
X0258874Y0252969D03*
X0258874Y0262811D03*
X0258874Y0272654D03*
X0258874Y0284465D03*
X0254150Y0302969D03*
X0242339Y0302969D03*
X0229740Y0302969D03*
X0218717Y0302969D03*
X0206906Y0302969D03*
X0195094Y0302969D03*
X0183283Y0302969D03*
X0171472Y0302969D03*
X0159661Y0302969D03*
X0159661Y0293126D03*
X0159661Y0283283D03*
X0159661Y0273441D03*
X0159661Y0263598D03*
X0159661Y0253756D03*
X0159661Y0243913D03*
X0159661Y0234071D03*
D15*
X0361273Y0237015D03*
X0363173Y0237015D03*
X0365173Y0237015D03*
X0367173Y0237015D03*
X0369073Y0237015D03*
X0369073Y0225615D03*
X0367173Y0225615D03*
X0365173Y0225615D03*
X0363173Y0225615D03*
X0361273Y0225615D03*
D16*
X0365173Y0231315D03*
D17*
X0324819Y0253953D02*
X0319898Y0249031D01*
X0314976Y0249031D01*
X0314976Y0253953D01*
X0319898Y0258874D01*
X0324819Y0258874D01*
X0324819Y0253953D01*
X0324819Y0254244D02*
X0315267Y0254244D01*
X0314976Y0253745D02*
X0324611Y0253745D01*
X0324113Y0253247D02*
X0314976Y0253247D01*
X0314976Y0252748D02*
X0323614Y0252748D01*
X0323116Y0252250D02*
X0314976Y0252250D01*
X0314976Y0251751D02*
X0322617Y0251751D01*
X0322119Y0251253D02*
X0314976Y0251253D01*
X0314976Y0250754D02*
X0321620Y0250754D01*
X0321122Y0250256D02*
X0314976Y0250256D01*
X0314976Y0249757D02*
X0320623Y0249757D01*
X0320125Y0249259D02*
X0314976Y0249259D01*
X0315766Y0254742D02*
X0324819Y0254742D01*
X0324819Y0255241D02*
X0316264Y0255241D01*
X0316763Y0255739D02*
X0324819Y0255739D01*
X0324819Y0256238D02*
X0317261Y0256238D01*
X0317760Y0256736D02*
X0324819Y0256736D01*
X0324819Y0257235D02*
X0318258Y0257235D01*
X0318757Y0257733D02*
X0324819Y0257733D01*
X0324819Y0258232D02*
X0319255Y0258232D01*
X0319754Y0258730D02*
X0324819Y0258730D01*
X0324819Y0265764D02*
X0319898Y0265764D01*
X0314976Y0270685D01*
X0314976Y0275606D01*
X0319898Y0275606D01*
X0324819Y0270685D01*
X0324819Y0265764D01*
X0324819Y0266208D02*
X0319453Y0266208D01*
X0318955Y0266707D02*
X0324819Y0266707D01*
X0324819Y0267205D02*
X0318456Y0267205D01*
X0317958Y0267704D02*
X0324819Y0267704D01*
X0324819Y0268202D02*
X0317459Y0268202D01*
X0316961Y0268701D02*
X0324819Y0268701D01*
X0324819Y0269199D02*
X0316462Y0269199D01*
X0315964Y0269698D02*
X0324819Y0269698D01*
X0324819Y0270196D02*
X0315465Y0270196D01*
X0314976Y0270695D02*
X0324809Y0270695D01*
X0324311Y0271193D02*
X0314976Y0271193D01*
X0314976Y0271692D02*
X0323812Y0271692D01*
X0323314Y0272190D02*
X0314976Y0272190D01*
X0314976Y0272689D02*
X0322815Y0272689D01*
X0322317Y0273187D02*
X0314976Y0273187D01*
X0314976Y0273686D02*
X0321818Y0273686D01*
X0321320Y0274184D02*
X0314976Y0274184D01*
X0314976Y0274683D02*
X0320821Y0274683D01*
X0320323Y0275181D02*
X0314976Y0275181D01*
X0308087Y0275181D02*
X0302740Y0275181D01*
X0303165Y0275606D02*
X0308087Y0275606D01*
X0308087Y0270685D01*
X0303165Y0265764D01*
X0298244Y0265764D01*
X0298244Y0270685D01*
X0303165Y0275606D01*
X0302242Y0274683D02*
X0308087Y0274683D01*
X0308087Y0274184D02*
X0301743Y0274184D01*
X0301245Y0273686D02*
X0308087Y0273686D01*
X0308087Y0273187D02*
X0300746Y0273187D01*
X0300248Y0272689D02*
X0308087Y0272689D01*
X0308087Y0272190D02*
X0299749Y0272190D01*
X0299251Y0271692D02*
X0308087Y0271692D01*
X0308087Y0271193D02*
X0298752Y0271193D01*
X0298254Y0270695D02*
X0308087Y0270695D01*
X0307598Y0270196D02*
X0298244Y0270196D01*
X0298244Y0269698D02*
X0307099Y0269698D01*
X0306601Y0269199D02*
X0298244Y0269199D01*
X0298244Y0268701D02*
X0306102Y0268701D01*
X0305604Y0268202D02*
X0298244Y0268202D01*
X0298244Y0267704D02*
X0305105Y0267704D01*
X0304607Y0267205D02*
X0298244Y0267205D01*
X0298244Y0266707D02*
X0304108Y0266707D01*
X0303610Y0266208D02*
X0298244Y0266208D01*
X0298244Y0258874D02*
X0303165Y0258874D01*
X0308087Y0253953D01*
X0308087Y0249031D01*
X0303165Y0249031D01*
X0298244Y0253953D01*
X0298244Y0258874D01*
X0298244Y0258730D02*
X0303309Y0258730D01*
X0303808Y0258232D02*
X0298244Y0258232D01*
X0298244Y0257733D02*
X0304306Y0257733D01*
X0304805Y0257235D02*
X0298244Y0257235D01*
X0298244Y0256736D02*
X0305303Y0256736D01*
X0305802Y0256238D02*
X0298244Y0256238D01*
X0298244Y0255739D02*
X0306300Y0255739D01*
X0306799Y0255241D02*
X0298244Y0255241D01*
X0298244Y0254742D02*
X0307297Y0254742D01*
X0307796Y0254244D02*
X0298244Y0254244D01*
X0298452Y0253745D02*
X0308087Y0253745D01*
X0308087Y0253247D02*
X0298950Y0253247D01*
X0299449Y0252748D02*
X0308087Y0252748D01*
X0308087Y0252250D02*
X0299947Y0252250D01*
X0300446Y0251751D02*
X0308087Y0251751D01*
X0308087Y0251253D02*
X0300944Y0251253D01*
X0301443Y0250754D02*
X0308087Y0250754D01*
X0308087Y0250256D02*
X0301941Y0250256D01*
X0302440Y0249757D02*
X0308087Y0249757D01*
X0308087Y0249259D02*
X0302938Y0249259D01*
D18*
X0303165Y0253953D03*
X0319898Y0253953D03*
X0319898Y0270685D03*
X0303165Y0270685D03*
D19*
X0358874Y0286039D03*
X0363874Y0286039D03*
X0368874Y0286039D03*
X0373874Y0286039D03*
X0378874Y0286039D03*
X0378874Y0301787D03*
X0373874Y0301787D03*
X0368874Y0301787D03*
X0363874Y0301787D03*
X0358874Y0301787D03*
D20*
X0201216Y0262978D02*
X0201216Y0262978D01*
X0207122Y0262978D01*
X0207122Y0262978D01*
X0201216Y0262978D01*
X0201216Y0259829D02*
X0201216Y0259829D01*
X0207122Y0259829D01*
X0207122Y0259829D01*
X0201216Y0259829D01*
X0201216Y0256679D02*
X0201216Y0256679D01*
X0207122Y0256679D01*
X0207122Y0256679D01*
X0201216Y0256679D01*
X0201216Y0253530D02*
X0201216Y0253530D01*
X0207122Y0253530D01*
X0207122Y0253530D01*
X0201216Y0253530D01*
X0201216Y0250380D02*
X0201216Y0250380D01*
X0207122Y0250380D01*
X0207122Y0250380D01*
X0201216Y0250380D01*
X0201216Y0247230D02*
X0201216Y0247230D01*
X0207122Y0247230D01*
X0207122Y0247230D01*
X0201216Y0247230D01*
X0201216Y0244081D02*
X0201216Y0244081D01*
X0207122Y0244081D01*
X0207122Y0244081D01*
X0201216Y0244081D01*
X0201216Y0240931D02*
X0201216Y0240931D01*
X0207122Y0240931D01*
X0207122Y0240931D01*
X0201216Y0240931D01*
X0201216Y0237781D02*
X0201216Y0237781D01*
X0207122Y0237781D01*
X0207122Y0237781D01*
X0201216Y0237781D01*
X0201216Y0234632D02*
X0201216Y0234632D01*
X0207122Y0234632D01*
X0207122Y0234632D01*
X0201216Y0234632D01*
X0201216Y0231482D02*
X0201216Y0231482D01*
X0207122Y0231482D01*
X0207122Y0231482D01*
X0201216Y0231482D01*
X0201216Y0228333D02*
X0201216Y0228333D01*
X0207122Y0228333D01*
X0207122Y0228333D01*
X0201216Y0228333D01*
X0201216Y0225183D02*
X0201216Y0225183D01*
X0207122Y0225183D01*
X0207122Y0225183D01*
X0201216Y0225183D01*
X0201216Y0222033D02*
X0201216Y0222033D01*
X0207122Y0222033D01*
X0207122Y0222033D01*
X0201216Y0222033D01*
X0201216Y0218884D02*
X0201216Y0218884D01*
X0207122Y0218884D01*
X0207122Y0218884D01*
X0201216Y0218884D01*
X0201216Y0215734D02*
X0201216Y0215734D01*
X0207122Y0215734D01*
X0207122Y0215734D01*
X0201216Y0215734D01*
X0201216Y0212585D02*
X0201216Y0212585D01*
X0207122Y0212585D01*
X0207122Y0212585D01*
X0201216Y0212585D01*
X0201216Y0209435D02*
X0201216Y0209435D01*
X0207122Y0209435D01*
X0207122Y0209435D01*
X0201216Y0209435D01*
X0171886Y0228333D02*
X0171886Y0228333D01*
X0177792Y0228333D01*
X0177792Y0228333D01*
X0171886Y0228333D01*
X0171886Y0231482D02*
X0171886Y0231482D01*
X0177792Y0231482D01*
X0177792Y0231482D01*
X0171886Y0231482D01*
X0171886Y0234632D02*
X0171886Y0234632D01*
X0177792Y0234632D01*
X0177792Y0234632D01*
X0171886Y0234632D01*
X0171886Y0237781D02*
X0171886Y0237781D01*
X0177792Y0237781D01*
X0177792Y0237781D01*
X0171886Y0237781D01*
X0171886Y0240931D02*
X0171886Y0240931D01*
X0177792Y0240931D01*
X0177792Y0240931D01*
X0171886Y0240931D01*
X0171886Y0244081D02*
X0171886Y0244081D01*
X0177792Y0244081D01*
X0177792Y0244081D01*
X0171886Y0244081D01*
X0171886Y0247230D02*
X0171886Y0247230D01*
X0177792Y0247230D01*
X0177792Y0247230D01*
X0171886Y0247230D01*
X0171886Y0250380D02*
X0171886Y0250380D01*
X0177792Y0250380D01*
X0177792Y0250380D01*
X0171886Y0250380D01*
X0171886Y0253530D02*
X0171886Y0253530D01*
X0177792Y0253530D01*
X0177792Y0253530D01*
X0171886Y0253530D01*
X0171886Y0256679D02*
X0171886Y0256679D01*
X0177792Y0256679D01*
X0177792Y0256679D01*
X0171886Y0256679D01*
X0171886Y0259829D02*
X0171886Y0259829D01*
X0177792Y0259829D01*
X0177792Y0259829D01*
X0171886Y0259829D01*
X0171886Y0262978D02*
X0171886Y0262978D01*
X0177792Y0262978D01*
X0177792Y0262978D01*
X0171886Y0262978D01*
X0181630Y0268097D02*
X0181630Y0268097D01*
X0181630Y0262191D01*
X0181630Y0262191D01*
X0181630Y0268097D01*
X0181630Y0264159D02*
X0181630Y0264159D01*
X0181630Y0266127D02*
X0181630Y0266127D01*
X0181630Y0268095D02*
X0181630Y0268095D01*
X0184780Y0268097D02*
X0184780Y0268097D01*
X0184780Y0262191D01*
X0184780Y0262191D01*
X0184780Y0268097D01*
X0184780Y0264159D02*
X0184780Y0264159D01*
X0184780Y0266127D02*
X0184780Y0266127D01*
X0184780Y0268095D02*
X0184780Y0268095D01*
X0187929Y0268097D02*
X0187929Y0268097D01*
X0187929Y0262191D01*
X0187929Y0262191D01*
X0187929Y0268097D01*
X0187929Y0264159D02*
X0187929Y0264159D01*
X0187929Y0266127D02*
X0187929Y0266127D01*
X0187929Y0268095D02*
X0187929Y0268095D01*
X0191079Y0262191D02*
X0191079Y0262191D01*
X0191079Y0268097D01*
X0191079Y0268097D01*
X0191079Y0262191D01*
X0191079Y0264159D02*
X0191079Y0264159D01*
X0191079Y0266127D02*
X0191079Y0266127D01*
X0191079Y0268095D02*
X0191079Y0268095D01*
X0194228Y0262191D02*
X0194228Y0262191D01*
X0194228Y0268097D01*
X0194228Y0268097D01*
X0194228Y0262191D01*
X0194228Y0264159D02*
X0194228Y0264159D01*
X0194228Y0266127D02*
X0194228Y0266127D01*
X0194228Y0268095D02*
X0194228Y0268095D01*
X0197378Y0262191D02*
X0197378Y0262191D01*
X0197378Y0268097D01*
X0197378Y0268097D01*
X0197378Y0262191D01*
X0197378Y0264159D02*
X0197378Y0264159D01*
X0197378Y0266127D02*
X0197378Y0266127D01*
X0197378Y0268095D02*
X0197378Y0268095D01*
D21*
X0355736Y0268717D03*
X0366736Y0268717D03*
D22*
X0356050Y0254937D03*
X0352250Y0254937D03*
X0359336Y0244701D03*
X0363136Y0244701D03*
D23*
X0356450Y0261236D03*
X0351850Y0261236D03*
X0372716Y0266748D03*
X0377316Y0266748D03*
D24*
X0376984Y0270354D03*
X0376984Y0274954D03*
D25*
X0376984Y0279543D01*
X0374031Y0282496D01*
X0374031Y0285449D01*
X0373874Y0286039D01*
X0378874Y0286039D02*
X0378953Y0285449D01*
X0379937Y0284465D01*
X0379937Y0272654D01*
X0377969Y0270685D01*
X0376984Y0270685D01*
X0376984Y0270354D01*
X0376984Y0266748D01*
X0377316Y0266748D01*
X0378953Y0263795D02*
X0375016Y0263795D01*
X0373047Y0265764D01*
X0373047Y0266748D01*
X0372716Y0266748D01*
X0378953Y0263795D02*
X0381906Y0266748D01*
X0381906Y0291354D01*
X0377969Y0295291D01*
X0361236Y0295291D01*
X0359268Y0297260D01*
X0358874Y0301787D01*
X0359268Y0301197D01*
X0359268Y0297260D01*
X0334661Y0297260D01*
X0321866Y0284465D01*
X0258874Y0284465D01*
X0257890Y0284465D01*
X0241157Y0267732D01*
X0239189Y0267732D01*
X0240173Y0263795D02*
X0254937Y0278559D01*
X0278559Y0278559D01*
X0279543Y0277575D01*
X0317929Y0277575D01*
X0325803Y0285449D01*
X0358283Y0285449D01*
X0358874Y0286039D01*
X0363205Y0285449D02*
X0363874Y0286039D01*
X0363205Y0285449D02*
X0363205Y0281512D01*
X0355331Y0273638D01*
X0347457Y0273638D01*
X0341551Y0268717D02*
X0339583Y0270685D01*
X0319898Y0270685D01*
X0310055Y0263795D02*
X0303165Y0270685D01*
X0310055Y0263795D02*
X0310055Y0251000D01*
X0313992Y0247063D01*
X0347457Y0247063D01*
X0357299Y0237220D01*
X0361236Y0237220D01*
X0361273Y0237015D01*
X0363173Y0237015D02*
X0363205Y0237220D01*
X0363205Y0239189D01*
X0360252Y0242142D01*
X0357299Y0242142D01*
X0352378Y0247063D01*
X0352378Y0254937D01*
X0352250Y0254937D01*
X0352378Y0254937D02*
X0352378Y0260843D01*
X0351850Y0261236D01*
X0354346Y0263795D02*
X0329740Y0263795D01*
X0319898Y0253953D01*
X0303165Y0253953D02*
X0332693Y0224425D01*
X0347457Y0239189D01*
X0347457Y0239258D01*
X0347457Y0239189D02*
X0355331Y0231315D01*
X0365173Y0231315D01*
X0376984Y0231315D01*
X0376984Y0222457D01*
X0377772Y0221542D01*
X0376984Y0213598D02*
X0377772Y0212742D01*
X0376984Y0213598D02*
X0367142Y0223441D01*
X0367142Y0225409D01*
X0367173Y0225615D01*
X0365173Y0225615D02*
X0365173Y0222457D01*
X0363205Y0220488D01*
X0362220Y0220488D01*
X0358283Y0216551D01*
X0358283Y0211630D01*
X0357762Y0211630D01*
X0348962Y0211630D02*
X0323835Y0211630D01*
X0322260Y0213205D01*
X0321866Y0213598D01*
X0332693Y0224425D01*
X0347457Y0221472D02*
X0348441Y0222457D01*
X0362220Y0222457D01*
X0363205Y0223441D01*
X0363205Y0225409D01*
X0363173Y0225615D01*
X0361273Y0225615D02*
X0361236Y0226394D01*
X0352378Y0226394D01*
X0347457Y0231315D01*
X0347457Y0230458D01*
X0363205Y0242142D02*
X0365173Y0240173D01*
X0365173Y0237015D01*
X0367142Y0237220D02*
X0367173Y0237015D01*
X0367142Y0237220D02*
X0367142Y0251000D01*
X0365173Y0252969D01*
X0359268Y0251984D02*
X0359268Y0245094D01*
X0359336Y0244701D01*
X0363136Y0244701D02*
X0363205Y0244110D01*
X0363205Y0242142D01*
X0369110Y0237220D02*
X0369073Y0237015D01*
X0369110Y0237220D02*
X0374031Y0237220D01*
X0376984Y0240173D01*
X0378559Y0241157D01*
X0377969Y0241157D01*
X0377969Y0250016D01*
X0367142Y0260843D01*
X0367142Y0268717D01*
X0366736Y0268717D01*
X0356315Y0261827D02*
X0356450Y0261236D01*
X0356315Y0260843D01*
X0356315Y0254937D01*
X0356050Y0254937D01*
X0356315Y0254937D02*
X0359268Y0251984D01*
X0356315Y0261827D02*
X0354346Y0263795D01*
X0355736Y0268717D02*
X0341551Y0268717D01*
X0321866Y0291354D02*
X0288402Y0291354D01*
X0279543Y0277575D02*
X0303165Y0253953D01*
X0299228Y0225409D02*
X0280921Y0219898D01*
X0258874Y0213598D01*
X0258874Y0212811D01*
X0258874Y0213598D02*
X0228362Y0213598D01*
X0207693Y0234268D01*
X0204740Y0234268D01*
X0204169Y0234632D01*
X0203756Y0232299D02*
X0199819Y0232299D01*
X0198835Y0233283D01*
X0198835Y0257890D01*
X0200803Y0259858D01*
X0203756Y0259858D01*
X0204169Y0259829D01*
X0204740Y0259858D01*
X0209661Y0259858D01*
X0210646Y0258874D01*
X0230331Y0258874D01*
X0228362Y0263795D02*
X0259858Y0295291D01*
X0259858Y0307102D01*
X0257890Y0309071D01*
X0189976Y0309071D01*
X0184071Y0303165D01*
X0183283Y0302969D01*
X0183087Y0302181D01*
X0180134Y0299228D01*
X0180134Y0277575D01*
X0175213Y0272654D01*
X0175213Y0263795D01*
X0174839Y0262978D01*
X0175213Y0259858D02*
X0174839Y0259829D01*
X0175213Y0259858D02*
X0178165Y0259858D01*
X0180134Y0257890D01*
X0182102Y0257890D01*
X0183087Y0253953D02*
X0175213Y0253953D01*
X0174839Y0253530D01*
X0174839Y0256679D02*
X0174228Y0256906D01*
X0171276Y0256906D01*
X0169307Y0258874D01*
X0169307Y0263795D01*
X0172260Y0266748D01*
X0172260Y0290370D01*
X0159661Y0302969D01*
X0159661Y0293126D02*
X0168323Y0284465D01*
X0159661Y0283283D02*
X0167339Y0275606D01*
X0159661Y0273441D02*
X0166354Y0266748D01*
X0167339Y0266748D01*
X0159661Y0263598D02*
X0169307Y0253953D01*
X0169307Y0246079D01*
X0171276Y0244110D01*
X0174228Y0244110D01*
X0174839Y0244081D01*
X0174228Y0241157D02*
X0171276Y0241157D01*
X0165370Y0247063D01*
X0165370Y0248047D01*
X0159661Y0253756D01*
X0159661Y0243913D02*
X0160449Y0243126D01*
X0166354Y0243126D01*
X0171276Y0238205D01*
X0174228Y0238205D01*
X0174839Y0237781D01*
X0174839Y0234632D02*
X0174228Y0234268D01*
X0160449Y0234268D01*
X0159661Y0234071D01*
X0174228Y0241157D02*
X0174839Y0240931D01*
X0175213Y0247063D02*
X0174839Y0247230D01*
X0175213Y0247063D02*
X0178165Y0247063D01*
X0180134Y0245094D01*
X0182102Y0245094D01*
X0182102Y0250016D02*
X0175213Y0250016D01*
X0174839Y0250380D01*
X0183087Y0253953D02*
X0187024Y0257890D01*
X0187929Y0265144D02*
X0188008Y0265764D01*
X0188008Y0275606D01*
X0209661Y0297260D01*
X0213598Y0297260D01*
X0218520Y0302181D01*
X0218717Y0302969D01*
X0219504Y0297260D02*
X0224425Y0297260D01*
X0229346Y0302181D01*
X0229740Y0302969D01*
X0235252Y0295291D02*
X0242142Y0302181D01*
X0242339Y0302969D01*
X0241157Y0297260D02*
X0249031Y0297260D01*
X0253953Y0302181D01*
X0254150Y0302969D01*
X0260843Y0291354D02*
X0277575Y0308087D01*
X0361236Y0308087D01*
X0363205Y0306118D01*
X0363205Y0302181D01*
X0363874Y0301787D01*
X0377969Y0241157D02*
X0376984Y0240173D01*
X0376984Y0231315D01*
X0367142Y0223441D02*
X0367142Y0214780D01*
X0265764Y0230331D02*
X0258874Y0223441D01*
X0245094Y0237220D01*
X0204740Y0237220D01*
X0204169Y0237781D01*
X0204740Y0240173D02*
X0204169Y0240931D01*
X0204740Y0240173D02*
X0251984Y0240173D01*
X0258874Y0233283D01*
X0265764Y0230331D02*
X0265764Y0274622D01*
X0258874Y0272654D02*
X0257890Y0272654D01*
X0251984Y0266748D01*
X0258874Y0262811D02*
X0247063Y0251000D01*
X0204740Y0251000D01*
X0204169Y0250380D01*
X0204740Y0248047D02*
X0204169Y0247230D01*
X0204740Y0248047D02*
X0253953Y0248047D01*
X0258874Y0252969D01*
X0257890Y0244110D02*
X0258874Y0243126D01*
X0257890Y0244110D02*
X0204740Y0244110D01*
X0204169Y0244081D01*
X0204169Y0253530D02*
X0204740Y0253953D01*
X0239189Y0253953D01*
X0246079Y0260843D01*
X0240173Y0263795D02*
X0228362Y0263795D01*
X0211630Y0263795D01*
X0211630Y0262811D01*
X0211630Y0263795D02*
X0204740Y0263795D01*
X0204169Y0262978D01*
X0209661Y0265764D02*
X0197850Y0265764D01*
X0197378Y0265144D01*
X0194898Y0265764D02*
X0194228Y0265144D01*
X0194898Y0265764D02*
X0194898Y0269701D01*
X0220488Y0295291D01*
X0235252Y0295291D01*
X0241157Y0297260D02*
X0209661Y0265764D01*
X0191079Y0265144D02*
X0190961Y0265764D01*
X0190961Y0268717D01*
X0219504Y0297260D01*
X0206709Y0302181D02*
X0206906Y0302969D01*
X0206709Y0302181D02*
X0185055Y0280528D01*
X0185055Y0265764D01*
X0184780Y0265144D01*
X0182102Y0265764D02*
X0181630Y0265144D01*
X0182102Y0265764D02*
X0182102Y0289386D01*
X0194898Y0302181D01*
X0195094Y0302969D01*
X0176197Y0289386D02*
X0176197Y0278559D01*
X0176197Y0289386D02*
X0172260Y0293323D01*
X0172260Y0302181D01*
X0171472Y0302969D01*
X0194898Y0246079D02*
X0194898Y0228362D01*
X0175213Y0228362D01*
X0174839Y0228333D01*
X0194898Y0228362D02*
X0203756Y0228362D01*
X0204169Y0228333D01*
X0204740Y0227378D01*
X0204740Y0225409D01*
X0204169Y0225183D01*
X0204740Y0224425D01*
X0204740Y0222457D01*
X0204169Y0222033D01*
X0204740Y0221472D01*
X0204740Y0219504D01*
X0204169Y0218884D01*
X0204740Y0218520D01*
X0204740Y0216551D01*
X0204169Y0215734D01*
X0204740Y0215567D01*
X0204740Y0212614D01*
X0204169Y0212585D01*
X0204740Y0211630D01*
X0204740Y0209661D01*
X0204169Y0209435D01*
X0204169Y0231482D02*
X0203756Y0232299D01*
D26*
X0194898Y0246079D03*
X0182102Y0245094D03*
X0182102Y0250016D03*
X0182102Y0257890D03*
X0187024Y0257890D03*
X0167339Y0266748D03*
X0167339Y0275606D03*
X0176197Y0278559D03*
X0168323Y0284465D03*
X0211630Y0262811D03*
X0230331Y0258874D03*
X0239189Y0267732D03*
X0246079Y0260843D03*
X0251984Y0266748D03*
X0265764Y0274622D03*
X0260843Y0291354D03*
X0288402Y0291354D03*
X0321866Y0291354D03*
X0347457Y0273638D03*
X0299228Y0225409D03*
M02*
